<svg width="78" height="76" viewBox="0 0 78 76" fill="none" xmlns="http://www.w3.org/2000/svg">
<rect width="16" height="16" transform="translate(31 26)" fill="url(#paint0_radial_268_381)"/>
<g filter="url(#filter0_d_268_381)">
<path d="M42.3068 30.8354C42.0394 30.172 41.1824 29.9956 40.6748 30.4994L38.9657 32.1958L36.6336 34.4766V34.4766C36.1739 34.8932 35.4852 34.9307 34.983 34.5665L34.9531 34.5447L37.8522 37.5225C38.4296 38.1155 39.3781 38.1289 39.9719 37.5524L43.1137 34.5021C43.4052 34.2191 43.4965 33.7878 43.3446 33.4109L42.3068 30.8354Z" fill="#FFA631"/>
<path d="M38.9657 32.1958L37.0191 30.2636C36.6092 29.8567 35.9169 30.0014 35.7042 30.5383L34.6162 33.2851C34.5893 33.3531 34.5676 33.4231 34.5513 33.4944V33.4944C34.4619 33.8844 34.6115 34.2904 34.9325 34.5294L34.9531 34.5447L34.983 34.5665C35.4852 34.9307 36.1739 34.8932 36.6336 34.4766V34.4766L38.9657 32.1958Z" fill="url(#paint1_linear_268_381)"/>
</g>
<defs>
<filter id="filter0_d_268_381" x="0.525635" y="0.0297852" width="76.8916" height="75.9463" filterUnits="userSpaceOnUse" color-interpolation-filters="sRGB">
<feFlood flood-opacity="0" result="BackgroundImageFix"/>
<feColorMatrix in="SourceAlpha" type="matrix" values="0 0 0 0 0 0 0 0 0 0 0 0 0 0 0 0 0 0 127 0" result="hardAlpha"/>
<feOffset dy="4"/>
<feGaussianBlur stdDeviation="17"/>
<feComposite in2="hardAlpha" operator="out"/>
<feColorMatrix type="matrix" values="0 0 0 0 0 0 0 0 0 0 0 0 0 0 0 0 0 0 0.25 0"/>
<feBlend mode="normal" in2="BackgroundImageFix" result="effect1_dropShadow_268_381"/>
<feBlend mode="normal" in="SourceGraphic" in2="effect1_dropShadow_268_381" result="shape"/>
</filter>
<radialGradient id="paint0_radial_268_381" cx="0" cy="0" r="1" gradientUnits="userSpaceOnUse" gradientTransform="rotate(45) scale(22.6274)">
<stop stop-color="#D1FCE2"/>
<stop offset="1" stop-color="#FFE5C3"/>
</radialGradient>
<linearGradient id="paint1_linear_268_381" x1="34.4063" y1="29.4063" x2="38.0157" y2="32.9532" gradientUnits="userSpaceOnUse">
<stop stop-color="#08BE51"/>
<stop offset="1" stop-color="#08BE51" stop-opacity="0.5"/>
</linearGradient>
</defs>
</svg>
