<?xml version="1.0" standalone="no"?>
<!DOCTYPE svg PUBLIC "-//W3C//DTD SVG 20010904//EN"
 "http://www.w3.org/TR/2001/REC-SVG-20010904/DTD/svg10.dtd">
<svg version="1.0" xmlns="http://www.w3.org/2000/svg"
 width="514.000000pt" height="514.000000pt" viewBox="0 0 514.000000 514.000000"
 preserveAspectRatio="xMidYMid meet">
<metadata>
Created by potrace 1.14, written by Peter Selinger 2001-2017
</metadata>
<g transform="translate(0.000000,514.000000) scale(0.100000,-0.100000)"
fill="#000000" stroke="none">
<path d="M1197 4673 c-2 -1 -12 -4 -23 -6 -56 -10 -164 -116 -164 -161 0 -11
-5 -14 -12 -10 -7 4 -8 3 -4 -5 4 -6 1 -25 -8 -41 -8 -16 -17 -43 -21 -60 -4
-18 -11 -27 -17 -24 -6 4 -8 2 -5 -3 4 -6 -7 -46 -25 -89 -17 -43 -31 -84 -31
-91 0 -7 -3 -13 -7 -13 -3 0 -14 -26 -25 -57 -10 -32 -23 -62 -29 -68 -6 -5
-13 -23 -14 -39 -2 -16 -11 -40 -19 -52 -8 -13 -16 -29 -17 -36 -4 -19 -24
-70 -36 -90 -6 -10 -10 -24 -10 -32 0 -8 -9 -31 -20 -53 -25 -48 -71 -173 -64
-173 3 0 -2 -7 -10 -16 -9 -8 -16 -23 -16 -33 0 -9 -5 -22 -12 -29 -7 -7 -9
-12 -5 -12 4 0 0 -14 -8 -31 -9 -17 -14 -37 -11 -45 3 -8 2 -13 -2 -10 -4 3
-14 -4 -21 -16 -7 -11 -8 -17 -3 -14 5 3 -3 -20 -19 -52 -16 -31 -29 -65 -29
-74 0 -9 -5 -20 -11 -24 -6 -3 -8 -15 -6 -26 5 -16 3 -17 -9 -7 -12 10 -13 9
-8 -4 3 -9 -2 -32 -11 -51 -10 -20 -15 -43 -11 -51 4 -11 2 -14 -6 -9 -8 5 -9
2 -4 -11 5 -14 4 -15 -7 -7 -10 9 -13 5 -11 -18 1 -19 -4 -34 -14 -40 -14 -8
-15 -11 -3 -19 11 -7 9 -10 -8 -16 -21 -6 -22 -7 -4 -21 16 -13 16 -13 0 -8
-12 5 -17 1 -17 -14 0 -12 -4 -23 -9 -26 -5 -4 -8 -17 -7 -31 2 -13 -1 -22 -5
-19 -5 3 -9 0 -9 -5 0 -6 6 -11 13 -11 9 0 9 -2 -1 -9 -17 -10 -22 -62 -8 -80
8 -11 8 -13 0 -8 -8 4 -11 -14 -10 -62 1 -39 5 -69 11 -68 5 1 11 -9 13 -23 4
-36 23 -80 34 -80 5 0 6 -4 3 -10 -6 -10 7 -14 32 -11 6 1 14 -2 17 -7 3 -5
-6 -8 -19 -6 -31 3 -31 1 0 -32 14 -15 23 -34 20 -41 -2 -8 0 -11 5 -8 6 3 13
-1 16 -9 3 -9 16 -16 28 -17 11 0 15 -3 8 -6 -8 -3 2 -16 28 -35 24 -18 39
-36 36 -44 -3 -8 -2 -13 2 -12 9 3 52 -25 52 -33 0 -4 38 -44 85 -89 46 -46
82 -87 79 -92 -3 -5 0 -7 8 -6 7 2 12 -4 10 -12 -2 -8 0 -12 4 -7 9 9 54 -32
54 -50 0 -7 3 -12 8 -11 10 4 52 -39 52 -54 0 -6 3 -9 6 -6 8 9 55 -42 48 -53
-3 -5 -2 -9 3 -8 23 4 35 -2 29 -17 -3 -8 -2 -13 2 -10 12 7 154 -139 144
-148 -4 -4 -2 -6 5 -4 9 2 193 -176 193 -188 0 -1 40 -42 89 -90 49 -48 87
-92 85 -96 -3 -5 0 -7 8 -6 7 2 12 -3 10 -10 -1 -8 1 -11 6 -8 10 6 58 -44 54
-57 -1 -4 5 -7 14 -7 8 0 12 -5 9 -10 -3 -5 -1 -10 4 -10 17 0 71 -62 64 -73
-3 -6 -1 -7 5 -3 13 8 54 -33 45 -47 -3 -6 -1 -7 5 -3 12 7 78 -60 74 -75 -1
-6 1 -8 6 -5 12 7 73 -60 64 -69 -4 -4 -2 -5 4 -3 12 3 164 -144 164 -159 1
-4 18 -21 38 -38 20 -16 55 -50 77 -75 38 -45 56 -58 135 -105 121 -70 271
-76 407 -15 34 16 65 25 69 22 4 -4 4 -1 0 6 -4 6 -4 12 1 12 4 0 28 18 52 40
24 21 49 36 54 33 6 -3 7 -1 4 4 -8 12 180 199 195 195 5 -1 7 2 4 6 -3 5 3
17 14 27 11 10 20 14 20 9 0 -5 6 2 13 16 7 14 20 24 29 24 10 -1 14 4 11 12
-3 9 2 14 13 14 9 0 15 3 11 6 -7 8 15 33 25 28 4 -2 9 5 13 16 4 11 11 18 16
15 5 -4 9 2 9 11 0 10 3 14 7 11 3 -4 13 2 20 13 8 11 19 17 25 14 6 -4 8 -3
5 2 -8 14 110 127 124 118 8 -5 9 -3 4 5 -5 8 15 34 55 72 34 32 66 59 71 59
5 0 9 4 9 10 0 13 101 106 112 102 5 -1 7 1 4 6 -7 12 98 114 108 105 4 -5 6
-3 4 3 -3 13 47 64 63 64 6 0 8 4 4 9 -7 12 29 33 40 23 5 -4 5 -1 1 6 -4 6
-2 12 4 12 6 0 8 5 5 10 -3 6 -2 10 3 10 5 0 52 43 105 96 53 53 100 93 105
90 5 -3 9 2 8 12 0 9 5 16 12 14 8 -1 11 2 7 7 -3 6 7 17 22 25 15 8 25 15 21
16 -3 0 19 25 50 55 32 33 61 54 69 51 8 -4 11 -1 7 5 -7 13 45 71 58 63 5 -3
7 -1 6 4 -4 11 146 162 161 162 6 0 11 6 11 14 0 8 9 18 20 21 11 4 18 11 15
16 -4 5 0 9 7 10 16 0 97 100 119 146 8 18 19 30 24 26 4 -5 6 -3 3 2 -3 6 2
41 11 79 19 77 14 162 -14 249 -9 26 -13 53 -9 59 4 6 3 8 -3 5 -14 -9 -37 48
-27 64 4 8 3 10 -4 5 -7 -4 -12 -2 -12 4 0 6 -8 30 -18 53 -11 23 -31 74 -47
112 -15 39 -31 79 -36 90 -5 11 -10 27 -11 35 -2 8 -6 17 -9 20 -13 12 -39 92
-33 103 4 7 3 9 -1 4 -7 -5 -141 305 -159 368 -2 6 -9 24 -16 42 -6 18 -11 35
-10 39 1 4 -2 10 -7 13 -8 6 -53 110 -53 124 0 5 5 5 12 1 7 -4 8 -3 4 5 -4 6
-11 9 -16 6 -11 -7 -42 84 -33 99 3 6 2 8 -2 3 -11 -10 -58 100 -49 115 4 7 3
8 -4 4 -7 -4 -14 4 -18 21 -4 15 -10 33 -14 38 -6 8 -30 72 -35 95 -1 3 -12
28 -24 55 -13 28 -24 55 -25 60 -9 38 -56 112 -93 144 -76 68 -199 79 -287 27
-22 -14 -79 -63 -126 -110 -46 -46 -88 -82 -92 -79 -5 2 -7 0 -6 -5 5 -16
-580 -594 -593 -586 -8 4 -9 3 -5 -5 8 -12 -18 -44 -28 -34 -3 4 -6 1 -6 -5 0
-16 -292 -302 -302 -296 -4 3 -5 -2 -2 -10 10 -27 -19 -18 -50 14 -24 26 -31
29 -45 18 -13 -10 -14 -10 -3 2 14 17 16 34 2 25 -5 -3 -10 -2 -10 4 0 6 -10
19 -22 31 -17 15 -24 17 -31 8 -5 -8 -6 -5 -2 10 6 22 0 26 -35 23 -11 -1 -12
0 -2 7 9 6 7 13 -10 28 -13 12 -40 38 -60 60 -51 53 -65 64 -74 56 -4 -4 -4
-2 -1 4 4 7 -8 25 -26 41 -17 16 -44 43 -59 62 -16 18 -28 30 -28 28 0 -3 -16
10 -35 29 -19 18 -35 38 -35 44 0 6 -4 9 -8 6 -5 -3 -15 6 -22 20 -8 13 -20
22 -27 20 -8 -3 -13 2 -13 14 0 11 -4 20 -9 20 -13 0 -126 112 -123 122 1 5
-2 7 -7 4 -5 -3 -23 12 -41 34 -18 22 -36 37 -41 34 -5 -3 -8 -1 -7 4 2 5 -12
23 -29 39 -18 17 -33 36 -33 42 0 6 -3 10 -7 9 -11 -3 -183 168 -183 181 0 6
-3 10 -7 9 -5 -1 -28 17 -53 41 -44 41 -90 71 -120 79 -20 4 -120 9 -123 5z
m570 -738 c0 -8 -4 -12 -9 -9 -5 3 -6 10 -3 15 9 13 12 11 12 -6z m164 -192
c13 -16 12 -17 -3 -4 -10 7 -18 15 -18 17 0 8 8 3 21 -13z m-426 -32 c3 -5 2
-12 -3 -15 -5 -3 -9 1 -9 9 0 17 3 19 12 6z m782 -6 c0 -8 -4 -12 -9 -9 -5 3
-6 10 -3 15 9 13 12 11 12 -6z m-1040 -90 c0 -8 -4 -12 -9 -9 -5 3 -6 10 -3
15 9 13 12 11 12 -6z m-126 -22 c13 -16 12 -17 -3 -4 -10 7 -18 15 -18 17 0 8
8 3 21 -13z m1124 -21 c-3 -3 -11 0 -18 7 -9 10 -8 11 6 5 10 -3 15 -9 12 -12z
m-1475 -28 c0 -8 -19 -13 -24 -6 -3 5 1 9 9 9 8 0 15 -2 15 -3z m760 -4 c0 -5
-5 -10 -11 -10 -5 0 -7 5 -4 10 3 6 8 10 11 10 2 0 4 -4 4 -10z m515 0 c3 -5
1 -10 -4 -10 -6 0 -11 5 -11 10 0 6 2 10 4 10 3 0 8 -4 11 -10z m85 -36 c0 -8
-19 -13 -24 -6 -3 5 1 9 9 9 8 0 15 -2 15 -3z m360 -8 c0 -2 -6 -9 -14 -15
-11 -9 -16 -9 -22 0 -4 7 -3 9 4 5 6 -3 13 -2 17 4 6 10 15 14 15 6z m-790
-32 c0 -8 -19 -13 -24 -6 -3 5 1 9 9 9 8 0 15 -2 15 -3z m227 -9 c0 -8 -4 -12
-9 -9 -5 3 -6 10 -3 15 9 13 12 11 12 -6z m354 -28 c-10 -9 -11 -8 -5 6 3 10
9 15 12 12 3 -3 0 -11 -7 -18z m184 14 c-9 -8 -36 -10 -30 -2 2 4 11 8 20 8 8
0 13 -3 10 -6z m-1735 -5 c0 -2 -8 -10 -17 -17 -16 -13 -17 -12 -4 4 13 16 21
21 21 13z m1384 -14 c3 -5 -1 -9 -9 -9 -8 0 -12 4 -9 9 3 4 7 8 9 8 2 0 6 -4
9 -8z m-106 -27 c-3 -3 -9 2 -12 12 -6 14 -5 15 5 6 7 -7 10 -15 7 -18z
m-1085 -10 c-3 -9 -8 -14 -10 -11 -3 3 -2 9 2 15 9 16 15 13 8 -4z m1001 -3
c3 -5 -1 -9 -9 -9 -8 0 -12 4 -9 9 3 4 7 8 9 8 2 0 6 -4 9 -8z m346 -2 c0 -5
-2 -10 -4 -10 -3 0 -8 5 -11 10 -3 6 -1 10 4 10 6 0 11 -4 11 -10z m75 0 c3
-5 1 -10 -4 -10 -6 0 -11 5 -11 10 0 6 2 10 4 10 3 0 8 -4 11 -10z m45 0 c0
-5 -2 -10 -4 -10 -3 0 -8 5 -11 10 -3 6 -1 10 4 10 6 0 11 -4 11 -10z m-756
-78 c3 -5 -1 -9 -9 -9 -8 0 -12 4 -9 9 3 4 7 8 9 8 2 0 6 -4 9 -8z m510 -20
c2 -4 -5 -9 -17 -9 -17 -2 -19 0 -7 7 18 12 18 12 24 2z m62 -4 c3 -4 -1 -5
-10 -4 -8 1 -18 5 -22 8 -3 4 1 5 10 4 8 -1 18 -5 22 -8z m64 2 c0 -5 -5 -10
-11 -10 -5 0 -7 5 -4 10 3 6 8 10 11 10 2 0 4 -4 4 -10z m-1540 -14 c0 -2 -7
-7 -16 -10 -8 -3 -12 -2 -9 4 6 10 25 14 25 6z m324 -4 c3 -5 -1 -9 -9 -9 -8
0 -12 4 -9 9 3 4 7 8 9 8 2 0 6 -4 9 -8z m353 -17 c0 -8 -4 -12 -9 -9 -5 3 -6
10 -3 15 9 13 12 11 12 -6z m443 0 c0 -7 -30 -13 -34 -7 -3 4 4 9 15 9 10 1
19 0 19 -2z m176 -7 c3 -4 -1 -5 -10 -4 -8 1 -18 5 -22 8 -3 4 1 5 10 4 8 -1
18 -5 22 -8z m59 3 c-9 -8 -36 -10 -30 -2 2 4 11 8 20 8 8 0 13 -3 10 -6z
m-771 -19 c3 -5 -1 -9 -9 -9 -8 0 -12 4 -9 9 3 4 7 8 9 8 2 0 6 -4 9 -8z m436
4 c0 -2 -7 -7 -16 -10 -8 -3 -12 -2 -9 4 6 10 25 14 25 6z m201 -9 c-6 -8 -7
-18 -3 -22 4 -5 1 -5 -6 -1 -10 6 -10 11 -1 22 6 8 14 14 16 14 3 0 0 -6 -6
-13z m-404 -12 c0 -8 -4 -12 -9 -9 -5 3 -6 10 -3 15 9 13 12 11 12 -6z m120 0
c0 -8 -4 -12 -9 -9 -5 3 -6 10 -3 15 9 13 12 11 12 -6z m398 6 c3 -5 2 -12 -3
-15 -5 -3 -9 1 -9 9 0 17 3 19 12 6z m-319 -47 c1 -9 0 -13 -4 -10 -3 4 -7 14
-8 22 -1 9 0 13 4 10 3 -4 7 -14 8 -22z m264 16 c0 -5 -4 -10 -10 -10 -5 0
-10 5 -10 10 0 6 5 10 10 10 6 0 10 -4 10 -10z m165 0 c-3 -5 -12 -10 -18 -10
-7 0 -6 4 3 10 19 12 23 12 15 0z m-668 -15 c0 -8 -4 -12 -9 -9 -5 3 -6 10 -3
15 9 13 12 11 12 -6z m-81 -21 c1 -9 0 -13 -4 -10 -3 4 -7 14 -8 22 -1 9 0 13
4 10 3 -4 7 -14 8 -22z m159 17 c-9 -8 -36 -10 -30 -2 2 4 11 8 20 8 8 0 13
-3 10 -6z m82 -6 c0 -8 -4 -12 -9 -9 -5 3 -6 10 -3 15 9 13 12 11 12 -6z m243
5 c0 -5 -5 -10 -11 -10 -5 0 -7 5 -4 10 3 6 8 10 11 10 2 0 4 -4 4 -10z m-545
-9 c3 -5 2 -12 -3 -15 -5 -3 -9 1 -9 9 0 17 3 19 12 6z m-481 -9 c3 -5 -1 -9
-9 -9 -8 0 -12 4 -9 9 3 4 7 8 9 8 2 0 6 -4 9 -8z m1286 4 c0 -2 -7 -7 -16
-10 -8 -3 -12 -2 -9 4 6 10 25 14 25 6z m-1360 -20 c0 -3 -4 -8 -10 -11 -5 -3
-10 -1 -10 4 0 6 5 11 10 11 6 0 10 -2 10 -4z m697 -18 c2 -17 0 -19 -7 -8 -5
8 -6 18 -4 22 8 12 10 10 11 -14z m78 12 c3 -5 1 -10 -4 -10 -6 0 -11 5 -11
10 0 6 2 10 4 10 3 0 8 -4 11 -10z m200 0 c3 -5 1 -10 -4 -10 -6 0 -11 5 -11
10 0 6 2 10 4 10 3 0 8 -4 11 -10z m165 6 c0 -3 -4 -8 -10 -11 -5 -3 -10 -1
-10 4 0 6 5 11 10 11 6 0 10 -2 10 -4z m40 -6 c0 -5 -2 -10 -4 -10 -3 0 -8 5
-11 10 -3 6 -1 10 4 10 6 0 11 -4 11 -10z m-1444 -36 c1 -9 0 -13 -4 -10 -3 4
-7 14 -8 22 -1 9 0 13 4 10 3 -4 7 -14 8 -22z m79 16 c3 -5 1 -10 -4 -10 -6 0
-11 5 -11 10 0 6 2 10 4 10 3 0 8 -4 11 -10z m521 -16 c1 -9 0 -13 -4 -10 -3
4 -7 14 -8 22 -1 9 0 13 4 10 3 -4 7 -14 8 -22z m200 11 c-1 -8 -5 -17 -8 -21
-5 -4 -4 16 1 34 3 9 9 -1 7 -13z m40 -11 c1 -9 0 -13 -4 -10 -3 4 -7 14 -8
22 -1 9 0 13 4 10 3 -4 7 -14 8 -22z m-161 7 c3 -5 2 -12 -3 -15 -5 -3 -9 1
-9 9 0 17 3 19 12 6z m-231 -9 c3 -5 -1 -9 -9 -9 -8 0 -12 4 -9 9 3 4 7 8 9 8
2 0 6 -4 9 -8z m70 -4 c-3 -4 -11 -5 -19 -1 -21 7 -19 12 4 10 11 0 18 -5 15
-9z m576 6 c0 -8 -19 -13 -24 -6 -3 5 1 9 9 9 8 0 15 -2 15 -3z m27 -9 c0 -8
-4 -12 -9 -9 -5 3 -6 10 -3 15 9 13 12 11 12 -6z m283 5 c0 -5 -2 -10 -4 -10
-3 0 -8 5 -11 10 -3 6 -1 10 4 10 6 0 11 -4 11 -10z m40 0 c0 -5 -2 -10 -4
-10 -3 0 -8 5 -11 10 -3 6 -1 10 4 10 6 0 11 -4 11 -10z m-1180 -14 c0 -3 -4
-8 -10 -11 -5 -3 -10 -1 -10 4 0 6 5 11 10 11 6 0 10 -2 10 -4z m1235 -14 c-3
-3 -11 0 -18 7 -9 10 -8 11 6 5 10 -3 15 -9 12 -12z m-1499 -17 c-1 -8 -5 -17
-8 -21 -5 -4 -4 16 1 34 3 9 9 -1 7 -13z m40 0 c-1 -8 -5 -17 -8 -21 -5 -4 -4
16 1 34 3 9 9 -1 7 -13z m304 0 c0 -2 -9 -3 -19 -2 -11 0 -18 5 -15 9 4 6 34
0 34 -7z m176 3 c3 -4 -1 -5 -10 -4 -8 1 -18 5 -22 8 -3 4 1 5 10 4 8 -1 18
-5 22 -8z m58 -4 c3 -8 2 -12 -4 -9 -6 3 -10 10 -10 16 0 14 7 11 14 -7z m62
-10 c1 -9 0 -13 -4 -10 -3 4 -7 14 -8 22 -1 9 0 13 4 10 3 -4 7 -14 8 -22z
m81 4 c2 -17 0 -19 -7 -8 -5 8 -6 18 -4 22 8 12 10 10 11 -14z m38 12 c3 -5 1
-10 -4 -10 -6 0 -11 5 -11 10 0 6 2 10 4 10 3 0 8 -4 11 -10z m121 -16 c1 -9
0 -13 -4 -10 -3 4 -7 14 -8 22 -1 9 0 13 4 10 3 -4 7 -14 8 -22z m204 16 c0
-5 -5 -10 -11 -10 -5 0 -7 5 -4 10 3 6 8 10 11 10 2 0 4 -4 4 -10z m40 0 c0
-5 -2 -10 -4 -10 -3 0 -8 5 -11 10 -3 6 -1 10 4 10 6 0 11 -4 11 -10z m320 0
c0 -5 -5 -10 -11 -10 -5 0 -7 5 -4 10 3 6 8 10 11 10 2 0 4 -4 4 -10z m-1320
-20 c0 -5 -2 -10 -4 -10 -3 0 -8 5 -11 10 -3 6 -1 10 4 10 6 0 11 -4 11 -10z
m156 -16 c1 -9 0 -13 -4 -10 -3 4 -7 14 -8 22 -1 9 0 13 4 10 3 -4 7 -14 8
-22z m744 20 c0 -8 -19 -13 -24 -6 -3 5 1 9 9 9 8 0 15 -2 15 -3z m-1100 -24
c0 -5 -2 -10 -4 -10 -3 0 -8 5 -11 10 -3 6 -1 10 4 10 6 0 11 -4 11 -10z m170
4 c0 -8 -19 -13 -24 -6 -3 5 1 9 9 9 8 0 15 -2 15 -3z m160 0 c0 -8 -19 -13
-24 -6 -3 5 1 9 9 9 8 0 15 -2 15 -3z m205 -3 c-9 -8 -36 -10 -30 -2 2 4 11 8
20 8 8 0 13 -3 10 -6z m465 5 c0 -3 -4 -8 -10 -11 -5 -3 -10 -1 -10 4 0 6 5
11 10 11 6 0 10 -2 10 -4z m40 -6 c0 -5 -2 -10 -4 -10 -3 0 -8 5 -11 10 -3 6
-1 10 4 10 6 0 11 -4 11 -10z m-263 -15 c0 -8 -4 -12 -9 -9 -5 3 -6 10 -3 15
9 13 12 11 12 -6z m78 6 c3 -5 2 -12 -3 -15 -5 -3 -9 1 -9 9 0 17 3 19 12 6z
m-795 -11 c0 -5 -2 -10 -4 -10 -3 0 -8 5 -11 10 -3 6 -1 10 4 10 6 0 11 -4 11
-10z m31 -13 c-10 -9 -11 -8 -5 6 3 10 9 15 12 12 3 -3 0 -11 -7 -18z m344 4
c3 -5 2 -12 -3 -15 -5 -3 -9 1 -9 9 0 17 3 19 12 6z m-199 -13 c3 -4 -1 -5
-10 -4 -8 1 -18 5 -22 8 -3 4 1 5 10 4 8 -1 18 -5 22 -8z m160 -14 c1 -9 0
-13 -4 -10 -3 4 -7 14 -8 22 -1 9 0 13 4 10 3 -4 7 -14 8 -22z m140 14 c3 -4
-1 -5 -10 -4 -8 1 -18 5 -22 8 -3 4 1 5 10 4 8 -1 18 -5 22 -8z m184 8 c0 -3
-4 -8 -10 -11 -5 -3 -10 -1 -10 4 0 6 5 11 10 11 6 0 10 -2 10 -4z m280 -6 c0
-5 -5 -10 -11 -10 -5 0 -7 5 -4 10 3 6 8 10 11 10 2 0 4 -4 4 -10z m40 0 c0
-5 -5 -10 -11 -10 -5 0 -7 5 -4 10 3 6 8 10 11 10 2 0 4 -4 4 -10z m160 6 c0
-3 -4 -8 -10 -11 -5 -3 -10 -1 -10 4 0 6 5 11 10 11 6 0 10 -2 10 -4z m-300
-10 c0 -2 -8 -10 -17 -17 -16 -13 -17 -12 -4 4 13 16 21 21 21 13z m-120 -16
c0 -5 -5 -10 -11 -10 -5 0 -7 5 -4 10 3 6 8 10 11 10 2 0 4 -4 4 -10z m-745
-20 c3 -5 1 -10 -4 -10 -6 0 -11 5 -11 10 0 6 2 10 4 10 3 0 8 -4 11 -10z m45
4 c0 -8 -19 -13 -24 -6 -3 5 1 9 9 9 8 0 15 -2 15 -3z m76 -9 c-1 -8 -5 -17
-8 -21 -5 -4 -4 16 1 34 3 9 9 -1 7 -13z m134 9 c0 -8 -19 -13 -24 -6 -3 5 1
9 9 9 8 0 15 -2 15 -3z m27 -9 c0 -8 -4 -12 -9 -9 -5 3 -6 10 -3 15 9 13 12
11 12 -6z m358 5 c3 -5 1 -10 -4 -10 -6 0 -11 5 -11 10 0 6 2 10 4 10 3 0 8
-4 11 -10z m40 0 c3 -5 1 -10 -4 -10 -6 0 -11 5 -11 10 0 6 2 10 4 10 3 0 8
-4 11 -10z m185 -4 c0 -2 -8 -10 -17 -17 -16 -13 -17 -12 -4 4 13 16 21 21 21
13z m-436 -14 c3 -5 -1 -9 -9 -9 -8 0 -12 4 -9 9 3 4 7 8 9 8 2 0 6 -4 9 -8z
m307 -15 c-10 -9 -11 -8 -5 6 3 10 9 15 12 12 3 -3 0 -11 -7 -18z m200 6 c13
-16 12 -17 -3 -4 -10 7 -18 15 -18 17 0 8 8 3 21 -13z m-771 -9 c0 -8 -19 -13
-24 -6 -3 5 1 9 9 9 8 0 15 -2 15 -3z m-63 -19 c0 -8 -4 -12 -9 -9 -5 3 -6 10
-3 15 9 13 12 11 12 -6z m1116 0 c-3 -9 -8 -14 -10 -11 -3 3 -2 9 2 15 9 16
15 13 8 -4z m-1242 -12 c13 -16 12 -17 -3 -4 -10 7 -18 15 -18 17 0 8 8 3 21
-13z m449 7 c0 -5 -2 -10 -4 -10 -3 0 -8 5 -11 10 -3 6 -1 10 4 10 6 0 11 -4
11 -10z m130 4 c0 -8 -19 -13 -24 -6 -3 5 1 9 9 9 8 0 15 -2 15 -3z m395 -3
c-9 -8 -36 -10 -30 -2 2 4 11 8 20 8 8 0 13 -3 10 -6z m-785 -21 c0 -5 -2 -10
-4 -10 -3 0 -8 5 -11 10 -3 6 -1 10 4 10 6 0 11 -4 11 -10z m195 0 c3 -5 1
-10 -4 -10 -6 0 -11 5 -11 10 0 6 2 10 4 10 3 0 8 -4 11 -10z m320 0 c3 -5 1
-10 -4 -10 -6 0 -11 5 -11 10 0 6 2 10 4 10 3 0 8 -4 11 -10z m61 -26 c1 -9 0
-13 -4 -10 -3 4 -7 14 -8 22 -1 9 0 13 4 10 3 -4 7 -14 8 -22z m44 22 c0 -2
-8 -10 -17 -17 -16 -13 -17 -12 -4 4 13 16 21 21 21 13z m160 -17 c0 -5 -4 -9
-8 -9 -5 0 -9 7 -9 15 0 8 4 12 9 9 4 -3 8 -9 8 -15z m33 6 c-3 -9 -8 -14 -10
-11 -3 3 -2 9 2 15 9 16 15 13 8 -4z m164 0 c0 -8 -4 -12 -9 -9 -5 3 -6 10 -3
15 9 13 12 11 12 -6z m-1147 -1 c0 -8 -19 -13 -24 -6 -3 5 1 9 9 9 8 0 15 -2
15 -3z m427 -9 c0 -8 -4 -12 -9 -9 -4 3 -8 9 -8 15 0 5 4 9 8 9 5 0 9 -7 9
-15z m93 11 c0 -2 -8 -10 -17 -17 -16 -13 -17 -12 -4 4 13 16 21 21 21 13z
m667 -11 c0 -8 -4 -12 -9 -9 -5 3 -6 10 -3 15 9 13 12 11 12 -6z m-1057 -15
c0 -5 -5 -10 -11 -10 -5 0 -7 5 -4 10 3 6 8 10 11 10 2 0 4 -4 4 -10z m1100 6
c0 -2 -7 -7 -16 -10 -8 -3 -12 -2 -9 4 6 10 25 14 25 6z m35 -5 c3 -5 2 -12
-3 -15 -5 -3 -9 1 -9 9 0 17 3 19 12 6z m-675 -5 c0 -2 -8 -10 -17 -17 -16
-13 -17 -12 -4 4 13 16 21 21 21 13z m400 0 c0 -2 -8 -10 -17 -17 -16 -13 -17
-12 -4 4 13 16 21 21 21 13z m-990 -10 c0 -2 -8 -10 -17 -17 -16 -13 -17 -12
-4 4 13 16 21 21 21 13z m547 -11 c0 -8 -4 -12 -9 -9 -5 3 -6 10 -3 15 9 13
12 11 12 -6z m274 -2 c13 -16 12 -17 -3 -4 -10 7 -18 15 -18 17 0 8 8 3 21
-13z m129 13 c0 -2 -7 -7 -16 -10 -8 -3 -12 -2 -9 4 6 10 25 14 25 6z m236 -8
c3 -4 -1 -5 -10 -4 -8 1 -18 5 -22 8 -3 4 1 5 10 4 8 -1 18 -5 22 -8z m48 4
c3 -5 -1 -9 -9 -9 -8 0 -12 4 -9 9 3 4 7 8 9 8 2 0 6 -4 9 -8z m-1104 -22 c0
-5 -5 -10 -11 -10 -5 0 -7 5 -4 10 3 6 8 10 11 10 2 0 4 -4 4 -10z m1062 -15
c8 3 22 -3 31 -13 14 -15 14 -19 3 -19 -8 0 -14 5 -13 11 1 6 -8 10 -20 9 -11
-1 -27 5 -35 15 -11 15 -11 16 3 4 9 -7 23 -10 31 -7z m-805 -10 c0 -8 -4 -12
-9 -9 -5 3 -6 10 -3 15 9 13 12 11 12 -6z m157 -1 c3 -8 2 -12 -4 -9 -6 3 -10
10 -10 16 0 14 7 11 14 -7z m601 7 c3 -5 2 -12 -3 -15 -5 -3 -9 1 -9 9 0 17 3
19 12 6z m126 -4 c-6 -8 -7 -18 -3 -22 4 -5 1 -5 -6 -1 -10 6 -10 11 -1 22 6
8 14 14 16 14 3 0 0 -6 -6 -13z m-160 -14 c13 -16 12 -17 -3 -4 -17 13 -22 21
-14 21 2 0 10 -8 17 -17z m-516 -3 c3 -6 -1 -7 -9 -4 -18 7 -21 14 -7 14 6 0
13 -4 16 -10z m235 6 c0 -2 -7 -7 -16 -10 -8 -3 -12 -2 -9 4 6 10 25 14 25 6z
m-800 -10 c0 -2 -8 -10 -17 -17 -16 -13 -17 -12 -4 4 13 16 21 21 21 13z m165
-16 c3 -6 -1 -7 -9 -4 -18 7 -21 14 -7 14 6 0 13 -4 16 -10z m200 1 c-9 -8
-36 -10 -30 -2 2 4 11 8 20 8 8 0 13 -3 10 -6z m439 1 c3 -5 -1 -9 -9 -9 -8 0
-12 4 -9 9 3 4 7 8 9 8 2 0 6 -4 9 -8z m160 0 c3 -5 -1 -9 -9 -9 -8 0 -12 4
-9 9 3 4 7 8 9 8 2 0 6 -4 9 -8z m86 2 c0 -8 -19 -13 -24 -6 -3 5 1 9 9 9 8 0
15 -2 15 -3z m65 -34 c10 -11 16 -20 13 -20 -3 0 -13 9 -23 20 -10 11 -16 20
-13 20 3 0 13 -9 23 -20z m-302 -5 c-3 -9 -8 -14 -10 -11 -3 3 -2 9 2 15 9 16
15 13 8 -4z m378 1 c-12 -14 -35 -16 -47 -3 -4 3 3 5 14 2 12 -2 24 0 27 6 4
5 9 9 12 9 3 0 0 -6 -6 -14z m-1100 -19 c-10 -9 -11 -8 -5 6 3 10 9 15 12 12
3 -3 0 -11 -7 -18z m624 -17 c1 -17 0 -32 -4 -34 -3 -2 -7 13 -7 35 -1 45 7
45 11 -1z m62 25 c0 -8 -4 -12 -9 -9 -4 3 -8 9 -8 15 0 5 4 9 8 9 5 0 9 -7 9
-15z m-341 -10 c-1 -8 -5 -17 -8 -21 -5 -4 -4 16 1 34 3 9 9 -1 7 -13z m-562
-11 c3 -8 2 -12 -4 -9 -6 3 -10 10 -10 16 0 14 7 11 14 -7z m1120 0 c3 -8 2
-12 -4 -9 -6 3 -10 10 -10 16 0 14 7 11 14 -7z m-439 -3 c3 -5 2 -12 -3 -15
-5 -3 -9 1 -9 9 0 17 3 19 12 6z m105 -12 c0 -5 -4 -9 -8 -9 -5 0 -9 7 -9 15
0 8 4 12 9 9 4 -3 8 -9 8 -15z m256 9 c5 4 6 3 2 -2 -4 -5 -3 -15 3 -23 21
-25 3 -13 -22 14 -13 15 -17 22 -8 15 9 -6 20 -8 25 -4z m223 -1 c8 -10 7 -14
-2 -14 -8 0 -14 6 -14 14 0 7 1 13 2 13 2 0 8 -6 14 -13z m-1288 -14 c13 -16
12 -17 -3 -4 -10 7 -18 15 -18 17 0 8 8 3 21 -13z m909 2 c-5 -7 -8 -14 -5
-17 3 -2 -2 -5 -10 -5 -10 0 -12 4 -5 12 5 7 8 14 5 17 -3 2 2 5 10 5 10 0 12
-4 5 -12z m197 -4 c0 -11 -5 -18 -9 -15 -4 3 -5 11 -1 19 7 21 12 19 10 -4z
m76 4 c4 -8 3 -16 -1 -19 -4 -3 -9 4 -9 15 -2 23 3 25 10 4z m-1116 -8 c0 -8
-6 -14 -14 -14 -9 0 -10 4 -2 14 6 7 12 13 14 13 1 0 2 -6 2 -13z m527 -5 c3
-5 -1 -9 -9 -9 -8 0 -12 4 -9 9 3 4 7 8 9 8 2 0 6 -4 9 -8z m560 0 c2 -4 -4
-8 -14 -8 -10 0 -16 4 -14 8 3 4 9 8 14 8 5 0 11 -4 14 -8z m-926 -27 c-3 -3
-9 2 -12 12 -6 14 -5 15 5 6 7 -7 10 -15 7 -18z m160 0 c-3 -3 -9 2 -12 12 -6
14 -5 15 5 6 7 -7 10 -15 7 -18z m137 13 c5 4 5 1 1 -6 -6 -10 -11 -10 -22 -1
-8 6 -14 14 -14 16 0 3 6 0 13 -6 8 -6 18 -7 22 -3z m-431 -6 c3 -5 -1 -9 -9
-9 -8 0 -12 4 -9 9 3 4 7 8 9 8 2 0 6 -4 9 -8z m327 -9 c13 -16 12 -17 -3 -4
-10 7 -18 15 -18 17 0 8 8 3 21 -13z m421 6 c2 -2 1 -3 -1 -2 -2 2 -9 -2 -16
-7 -8 -7 -12 -5 -12 4 0 12 22 16 29 5z m213 2 c-9 -8 -36 -10 -30 -2 2 4 11
8 20 8 8 0 13 -3 10 -6z m-902 -23 c-6 -7 -9 -21 -8 -30 2 -9 -7 -25 -18 -35
-21 -18 -21 -17 -7 1 8 11 15 26 15 35 0 17 13 41 22 41 3 0 1 -6 -4 -12z m42
2 c-3 -5 -12 -10 -18 -10 -7 0 -6 4 3 10 19 12 23 12 15 0z m165 5 c0 -2 -6
-8 -13 -14 -10 -8 -14 -7 -14 2 0 8 6 14 14 14 7 0 13 -1 13 -2z m341 -12 c13
-16 12 -17 -3 -4 -10 7 -18 15 -18 17 0 8 8 3 21 -13z m487 -2 c-7 -9 -13 -18
-15 -20 -1 -2 -1 5 0 16 0 11 7 20 14 20 10 0 10 -4 1 -16z m-1104 -21 c-6 -6
-10 -3 -10 10 0 13 4 16 10 10 7 -7 7 -13 0 -20z m141 21 c3 -5 2 -12 -3 -15
-5 -3 -9 1 -9 9 0 17 3 19 12 6z m160 0 c3 -5 2 -12 -3 -15 -5 -3 -9 1 -9 9 0
17 3 19 12 6z m665 5 c0 -2 -8 -10 -17 -17 -16 -13 -17 -12 -4 4 13 16 21 21
21 13z m-505 -15 c3 -5 2 -12 -3 -15 -5 -3 -9 1 -9 9 0 17 3 19 12 6z m80 -8
c-1 -10 5 -27 14 -38 16 -20 16 -20 -6 -2 -17 15 -21 30 -14 55 4 11 9 -2 6
-15z m275 13 c0 -2 -8 -10 -17 -17 -16 -13 -17 -12 -4 4 13 16 21 21 21 13z
m101 -13 c13 -16 12 -17 -3 -4 -15 11 -21 11 -35 0 -16 -13 -17 -12 -4 4 7 9
17 17 21 17 4 0 14 -8 21 -17z m-813 -18 c-3 -3 -9 2 -12 12 -6 14 -5 15 5 6
7 -7 10 -15 7 -18z m475 10 c-3 -9 -8 -14 -10 -11 -3 3 -2 9 2 15 9 16 15 13
8 -4z m-562 -18 c-10 -9 -11 -8 -5 6 3 10 9 15 12 12 3 -3 0 -11 -7 -18z m489
13 c0 -5 -4 -10 -10 -10 -5 0 -10 5 -10 10 0 6 5 10 10 10 6 0 10 -4 10 -10z
m117 -12 c2 -17 0 -19 -7 -8 -5 8 -6 18 -4 22 8 12 10 10 11 -14z m43 8 c-7
-7 -13 -7 -20 0 -6 6 -3 10 10 10 13 0 16 -4 10 -10z m170 10 c0 -2 -8 -10
-17 -17 -16 -13 -17 -12 -4 4 13 16 21 21 21 13z m155 -5 c-9 -8 -36 -10 -30
-2 2 4 11 8 20 8 8 0 13 -3 10 -6z m81 -3 c3 -4 -1 -5 -10 -4 -8 1 -18 5 -22
8 -3 4 1 5 10 4 8 -1 18 -5 22 -8z m-710 -18 c0 -12 -4 -16 -9 -11 -5 5 -6 14
-3 20 10 15 12 14 12 -9z m360 -6 c1 -9 0 -13 -4 -10 -3 4 -7 14 -8 22 -1 9 0
13 4 10 3 -4 7 -14 8 -22z m-256 4 c0 -6 -3 -8 -7 -5 -3 4 -13 1 -22 -6 -14
-11 -14 -10 -2 6 15 20 31 22 31 5z m291 -11 c-10 -9 -11 -8 -5 6 3 10 9 15
12 12 3 -3 0 -11 -7 -18z m99 19 c0 -2 -8 -10 -17 -17 -16 -13 -17 -12 -4 4
13 16 21 21 21 13z m46 -36 c-1 -21 -4 -42 -7 -44 -3 -3 -4 11 -3 32 2 47 3
52 8 52 2 0 3 -18 2 -40z m-801 -4 c0 -19 -3 -37 -6 -40 -4 -5 -4 62 0 72 4
10 7 -4 6 -32z m46 17 c13 -16 12 -17 -3 -4 -10 7 -18 15 -18 17 0 8 8 3 21
-13z m-84 -11 c-9 -10 -26 -18 -39 -19 -17 -2 -19 0 -8 7 8 5 17 7 21 4 4 -2
12 3 19 11 7 8 15 15 18 15 3 0 -2 -8 -11 -18z m801 -2 c-7 -10 -14 -17 -17
-15 -4 4 18 35 25 35 2 0 -1 -9 -8 -20z m-238 6 c0 -2 -6 -9 -14 -15 -11 -9
-16 -9 -22 0 -4 7 -3 9 4 5 6 -3 13 -2 17 4 6 10 15 14 15 6z m92 -11 c2 3 5
-2 5 -10 0 -19 0 -19 -23 7 -12 14 -13 18 -3 10 9 -6 18 -10 21 -7z m-475 -12
c0 -10 -4 -10 -16 -1 -9 7 -18 13 -20 15 -2 1 5 1 16 0 11 0 20 -7 20 -14z
m214 0 c12 -16 12 -17 -2 -6 -9 7 -20 9 -24 5 -5 -4 -5 -1 -1 6 9 16 11 15 27
-5z m106 0 c0 -10 -4 -10 -16 -1 -9 7 -18 13 -20 15 -2 1 5 1 16 0 11 0 20 -7
20 -14z m207 9 c3 -5 -1 -9 -9 -9 -8 0 -12 4 -9 9 3 4 7 8 9 8 2 0 6 -4 9 -8z
m-624 -6 c0 -2 -8 -10 -17 -17 -16 -13 -17 -12 -4 4 13 16 21 21 21 13z m158
-26 c-7 -10 -14 -17 -17 -15 -4 4 18 35 25 35 2 0 -1 -9 -8 -20z m38 -6 c1 -9
0 -13 -4 -10 -3 4 -7 14 -8 22 -1 9 0 13 4 10 3 -4 7 -14 8 -22z m35 9 c13
-16 12 -17 -3 -4 -10 7 -18 15 -18 17 0 8 8 3 21 -13z m181 -8 c3 3 13 -5 24
-17 19 -23 19 -23 -2 -5 -11 9 -23 15 -26 12 -3 -3 -13 5 -24 17 -19 23 -19
23 2 5 11 -9 23 -15 26 -12z m103 17 c-3 -3 0 -11 6 -19 17 -20 5 -16 -14 5
-15 16 -15 19 -2 19 8 0 13 -3 10 -5z m40 -20 c-3 -3 1 -12 8 -21 11 -14 10
-14 -6 -2 -9 8 -15 16 -12 19 3 3 -1 12 -8 21 -11 14 -10 14 6 2 9 -8 15 -16
12 -19z m82 11 c-14 -14 -19 -15 -29 -4 -11 10 -10 11 3 6 10 -4 20 -2 24 4 3
6 9 11 13 11 3 0 -1 -8 -11 -17z m163 13 c0 -2 -7 -7 -16 -10 -8 -3 -12 -2 -9
4 6 10 25 14 25 6z m36 -12 c-1 -8 -6 -17 -12 -21 -5 -4 -6 -4 -2 1 4 5 3 14
-2 21 -7 8 -5 12 4 12 8 0 13 -6 12 -13z m33 -5 c-5 -10 -15 -21 -22 -25 -8
-6 -8 -3 1 9 8 9 11 20 8 25 -3 5 1 9 9 9 10 0 11 -5 4 -18z m-982 -7 c-10
-10 -14 -22 -10 -25 3 -4 1 -7 -5 -7 -7 0 -12 3 -12 7 0 8 31 43 38 43 3 0 -2
-8 -11 -18z m133 14 c0 -2 -8 -10 -17 -17 -16 -13 -17 -12 -4 4 13 16 21 21
21 13z m276 -22 c1 -9 0 -13 -4 -10 -3 4 -7 14 -8 22 -1 9 0 13 4 10 3 -4 7
-14 8 -22z m176 11 c3 3 11 -3 19 -12 12 -16 12 -17 -2 -6 -9 7 -18 11 -21 8
-3 -3 -11 3 -19 12 -12 16 -12 17 2 6 9 -7 18 -11 21 -8z m242 -14 c-2 -3 -12
3 -22 13 -16 17 -16 18 5 5 12 -7 20 -15 17 -18z m-597 12 c-4 -3 -1 -13 6
-22 11 -14 10 -14 -5 -2 -16 12 -16 31 -1 31 4 0 3 -3 0 -7z m553 3 c0 -2 -8
-10 -17 -17 -16 -13 -17 -12 -4 4 13 16 21 21 21 13z m-630 -10 c0 -2 -8 -10
-17 -17 -16 -13 -17 -12 -4 4 13 16 21 21 21 13z m320 0 c0 -2 -8 -10 -17 -17
-16 -13 -17 -12 -4 4 13 16 21 21 21 13z m245 -16 c-3 -5 -12 -10 -18 -10 -7
0 -6 4 3 10 19 12 23 12 15 0z m-625 -4 c0 -2 -8 -10 -17 -17 -16 -13 -17 -12
-4 4 13 16 21 21 21 13z m80 0 c0 -2 -8 -10 -17 -17 -16 -13 -17 -12 -4 4 13
16 21 21 21 13z m57 -41 c0 -8 -4 -12 -9 -9 -5 4 -7 9 -4 12 3 3 -2 15 -11 26
-18 21 -18 21 3 3 11 -9 21 -24 21 -32z m55 30 c2 3 5 -2 5 -10 0 -19 0 -19
-23 7 -12 14 -13 18 -3 10 9 -6 18 -10 21 -7z m208 11 c0 -2 -8 -10 -17 -17
-16 -13 -17 -12 -4 4 13 16 21 21 21 13z m54 -25 c-2 -3 -12 3 -22 13 -16 17
-16 18 5 5 12 -7 20 -15 17 -18z m105 16 c8 -10 7 -14 -2 -14 -8 0 -14 6 -14
14 0 7 1 13 2 13 2 0 8 -6 14 -13z m-599 -9 c0 -5 -11 -6 -25 -4 -14 3 -25 0
-25 -6 0 -6 -3 -9 -6 -5 -3 3 -4 10 -1 14 7 11 57 12 57 1z m736 -14 c1 -9 0
-13 -4 -10 -3 4 -7 14 -8 22 -1 9 0 13 4 10 3 -4 7 -14 8 -22z m104 18 c0 -4
-10 -9 -22 -9 -18 -2 -20 0 -8 7 18 12 30 13 30 2z m34 0 c3 -5 -1 -9 -9 -9
-8 0 -12 4 -9 9 3 4 7 8 9 8 2 0 6 -4 9 -8z m-819 -11 c3 -5 2 -12 -3 -15 -5
-3 -9 1 -9 9 0 17 3 19 12 6z m83 -4 c8 -10 6 -13 -11 -14 -12 0 -16 1 -9 4 6
3 10 9 6 14 -8 14 2 11 14 -4z m321 0 c8 -10 7 -14 -2 -14 -8 0 -14 6 -14 14
0 7 1 13 2 13 2 0 8 -6 14 -13z m324 0 c3 -7 -3 -13 -14 -13 -13 0 -15 3 -7
13 6 7 12 13 13 13 2 0 5 -6 8 -13z m-572 -14 c13 -16 12 -17 -3 -4 -10 7 -18
15 -18 17 0 8 8 3 21 -13z m89 13 c0 -2 -7 -7 -16 -10 -8 -3 -12 -2 -9 4 6 10
25 14 25 6z m46 -8 c3 -4 -1 -5 -10 -4 -8 1 -18 5 -22 8 -3 4 1 5 10 4 8 -1
18 -5 22 -8z m284 8 c0 -2 -8 -10 -17 -17 -16 -13 -17 -12 -4 4 13 16 21 21
21 13z m-533 -21 c0 -8 -4 -15 -9 -15 -10 0 -11 14 -1 23 9 10 10 9 10 -8z
m333 11 c0 -2 -7 -7 -16 -10 -8 -3 -12 -2 -9 4 6 10 25 14 25 6z m158 -8 c-2
-6 -12 -12 -21 -14 -9 -1 -15 2 -11 7 3 5 10 7 15 4 5 -4 9 -1 9 4 0 6 3 11 6
11 3 0 4 -5 2 -12z m147 -16 c11 -6 15 -12 8 -12 -6 0 -15 5 -18 10 -4 6 -10
8 -15 5 -5 -3 -11 -1 -14 4 -8 12 14 8 39 -7z m100 9 c3 -5 2 -12 -3 -15 -5
-3 -9 1 -9 9 0 17 3 19 12 6z m-534 -18 c13 -16 12 -17 -3 -4 -17 13 -22 21
-14 21 2 0 10 -8 17 -17z m40 -1 c-9 -3 -7 -10 6 -26 18 -21 18 -21 -3 -3 -24
20 -28 48 -5 39 11 -4 11 -7 2 -10z m-326 -2 c-3 -5 -12 -10 -18 -10 -7 0 -6
4 3 10 19 12 23 12 15 0z m126 -10 c-5 -8 -7 -23 -6 -32 2 -10 0 -20 -4 -23
-4 -2 -7 8 -6 23 1 15 -2 32 -6 37 -5 7 -1 11 11 11 13 0 16 -4 11 -16z m249
15 c0 -2 -6 -8 -13 -14 -10 -8 -14 -7 -14 2 0 8 6 14 14 14 7 0 13 -1 13 -2z
m73 -12 c-4 -10 -9 -11 -19 -2 -18 15 -18 15 5 15 11 0 17 -5 14 -13z m233
-17 c-2 -38 -12 -39 -12 -1 0 18 3 32 7 30 3 -3 5 -15 5 -29z m-415 10 c14 8
11 -2 -4 -14 -10 -8 -13 -6 -14 11 0 12 1 16 4 9 3 -6 9 -10 14 -6z m275 -5
c0 -11 -5 -17 -13 -14 -10 4 -11 9 -2 19 15 18 15 18 15 -5z m239 10 c3 -5 2
-12 -3 -15 -5 -3 -9 1 -9 9 0 17 3 19 12 6z m-295 -13 c0 -6 -3 -8 -7 -5 -3 4
-13 1 -22 -6 -14 -11 -14 -10 -2 6 15 20 31 22 31 5z m164 1 c3 -2 -10 -5 -29
-5 -18 0 -32 3 -30 7 5 7 52 6 59 -2z m-450 -36 c0 -12 -4 -26 -9 -30 -4 -5
-4 -2 0 6 6 10 4 13 -7 9 -8 -4 -15 0 -15 8 0 7 5 10 10 7 6 -4 8 0 5 9 -4 8
-1 15 6 15 6 0 11 -11 10 -24z m206 13 c-7 -7 -13 -7 -20 0 -6 6 -3 10 10 10
13 0 16 -4 10 -10z m-316 -8 c4 3 4 -1 1 -10 -6 -15 -8 -15 -26 0 -24 21 -24
26 0 13 10 -6 21 -7 25 -3z m504 4 c14 10 15 10 5 -2 -18 -20 -43 -22 -35 -2
4 11 7 12 10 4 3 -10 7 -10 20 0z m-218 -17 c11 -13 10 -14 -5 -9 -11 5 -16 4
-12 -3 3 -5 0 -10 -7 -10 -11 0 -12 4 -3 19 14 22 12 21 27 3z m70 5 c0 -5 -2
-10 -4 -10 -3 0 -8 5 -11 10 -3 6 -1 10 4 10 6 0 11 -4 11 -10z m287 4 c-8 -8
-48 -13 -43 -6 2 4 14 8 26 9 12 1 20 0 17 -3z m-87 -24 c0 -5 -4 -10 -10 -10
-5 0 -10 5 -10 10 0 6 5 10 10 10 6 0 10 -4 10 -10z m-482 -25 c-3 -3 -9 2
-12 12 -6 14 -5 15 5 6 7 -7 10 -15 7 -18z m96 15 c-5 -5 -18 -11 -29 -13 -11
-1 -27 -7 -35 -12 -13 -8 -13 -7 -1 8 7 9 16 15 20 13 3 -2 15 0 26 5 27 11
31 11 19 -1z m223 4 c-3 -3 -12 -4 -19 -1 -8 3 -5 6 6 6 11 1 17 -2 13 -5z
m90 0 c-3 -3 -12 -4 -19 -1 -8 3 -5 6 6 6 11 1 17 -2 13 -5z m-251 -21 c-2 -9
-9 -19 -17 -21 -11 -3 -11 -1 1 7 8 6 11 11 7 11 -5 0 -5 5 -2 10 9 15 14 12
11 -7z m84 5 c0 -4 -4 -8 -9 -8 -6 0 -12 4 -15 8 -3 5 1 9 9 9 8 0 15 -4 15
-9z m117 5 c-4 -3 -3 -11 3 -17 6 -8 3 -12 -9 -12 -12 0 -17 6 -13 18 2 10 9
18 15 18 6 0 7 -3 4 -7z m-169 -44 c-3 -8 -7 -3 -11 10 -4 17 -3 21 5 13 5 -5
8 -16 6 -23z m86 7 c-6 -16 -31 -17 -31 0 0 7 7 10 15 6 11 -4 13 -1 7 8 -5 8
-4 11 3 6 6 -4 9 -12 6 -20z m-60 -12 c3 -8 2 -12 -4 -9 -6 3 -10 10 -10 16 0
14 7 11 14 -7z"/>
<path d="M4500 3666 c0 -2 8 -10 18 -17 15 -13 16 -12 3 4 -13 16 -21 21 -21
13z"/>
<path d="M2593 3575 c0 -8 4 -12 9 -9 5 3 6 10 3 15 -9 13 -12 11 -12 -6z"/>
<path d="M2546 3538 c3 -5 10 -6 15 -3 13 9 11 12 -6 12 -8 0 -12 -4 -9 -9z"/>
<path d="M455 3220 c3 -5 8 -10 11 -10 2 0 4 5 4 10 0 6 -5 10 -11 10 -5 0 -7
-4 -4 -10z"/>
<path d="M810 1941 c0 -6 4 -13 10 -16 6 -3 7 1 4 9 -7 18 -14 21 -14 7z"/>
<path d="M4155 1760 c3 -5 8 -10 11 -10 2 0 4 5 4 10 0 6 -5 10 -11 10 -5 0
-7 -4 -4 -10z"/>
<path d="M3279 933 c-13 -16 -12 -17 4 -4 16 13 21 21 13 21 -2 0 -10 -8 -17
-17z"/>
<path d="M2230 486 c0 -2 7 -7 16 -10 8 -3 12 -2 9 4 -6 10 -25 14 -25 6z"/>
</g>
</svg>
