<svg width="360" height="228" viewBox="0 0 360 228" fill="none" xmlns="http://www.w3.org/2000/svg">
<rect width="360" height="228" fill="white"/>
<rect width="360" height="76" fill="#F7F7F7"/>
<path d="M15.252 27H13.7578V14.1504H20.9121V15.4688H15.252V20.1797H20.5693V21.4893H15.252V27ZM30.791 17.3672V27H29.5957L29.3848 25.6465H29.3057C29.1064 25.9805 28.8486 26.2617 28.5322 26.4902C28.2158 26.7188 27.8584 26.8887 27.46 27C27.0674 27.1172 26.6484 27.1758 26.2031 27.1758C25.4414 27.1758 24.8027 27.0527 24.2871 26.8066C23.7715 26.5605 23.3818 26.1797 23.1182 25.6641C22.8604 25.1484 22.7314 24.4863 22.7314 23.6777V17.3672H24.208V23.5723C24.208 24.375 24.3896 24.9756 24.7529 25.374C25.1162 25.7666 25.6699 25.9629 26.4141 25.9629C27.1289 25.9629 27.6973 25.8281 28.1191 25.5586C28.5469 25.2891 28.8545 24.8936 29.042 24.3721C29.2295 23.8447 29.3232 23.2002 29.3232 22.4385V17.3672H30.791ZM37.585 17.1914C38.4053 17.1914 39.1084 17.373 39.6943 17.7363C40.2803 18.0996 40.7285 18.6094 41.0391 19.2656C41.3496 19.916 41.5049 20.6777 41.5049 21.5508V22.4561H34.8516C34.8691 23.5869 35.1504 24.4482 35.6953 25.04C36.2402 25.6318 37.0078 25.9277 37.998 25.9277C38.6074 25.9277 39.1465 25.8721 39.6152 25.7607C40.084 25.6494 40.5703 25.4854 41.0742 25.2686V26.5518C40.5879 26.7686 40.1045 26.9268 39.624 27.0264C39.1494 27.126 38.5869 27.1758 37.9365 27.1758C37.0107 27.1758 36.2021 26.9883 35.5107 26.6133C34.8252 26.2324 34.292 25.6758 33.9111 24.9434C33.5303 24.2109 33.3398 23.3145 33.3398 22.2539C33.3398 21.2168 33.5127 20.3203 33.8584 19.5645C34.21 18.8027 34.7021 18.2168 35.335 17.8066C35.9736 17.3965 36.7236 17.1914 37.585 17.1914ZM37.5674 18.3867C36.7881 18.3867 36.167 18.6416 35.7041 19.1514C35.2412 19.6611 34.9658 20.373 34.8779 21.2871H39.9756C39.9697 20.7129 39.8789 20.209 39.7031 19.7754C39.5332 19.3359 39.2725 18.9961 38.9209 18.7559C38.5693 18.5098 38.1182 18.3867 37.5674 18.3867ZM45.4512 27H43.9834V13.3242H45.4512V27Z" fill="black"/>
<path d="M261.939 19.2568C262.807 19.2568 263.554 19.4033 264.181 19.6963C264.813 19.9893 265.3 20.417 265.64 20.9795C265.985 21.5361 266.158 22.2188 266.158 23.0273C266.158 23.8828 265.968 24.6211 265.587 25.2422C265.206 25.8633 264.667 26.3408 263.97 26.6748C263.278 27.0088 262.461 27.1758 261.518 27.1758C260.838 27.1758 260.22 27.1113 259.663 26.9824C259.112 26.8477 258.646 26.6689 258.266 26.4463V25.5498C258.676 25.7959 259.165 25.998 259.733 26.1562C260.308 26.3145 260.905 26.3936 261.526 26.3936C262.276 26.3936 262.93 26.2676 263.486 26.0156C264.043 25.7578 264.474 25.3828 264.778 24.8906C265.089 24.3984 265.244 23.7949 265.244 23.0801C265.244 22.125 264.954 21.3809 264.374 20.8477C263.794 20.3086 262.918 20.0391 261.746 20.0391C261.266 20.0391 260.806 20.0742 260.366 20.1445C259.933 20.209 259.528 20.291 259.153 20.3906L258.644 20.0303L259.162 14.1504H265.332V14.9766H259.927L259.531 19.5557C259.795 19.4912 260.126 19.4268 260.524 19.3623C260.929 19.292 261.4 19.2568 261.939 19.2568ZM268.417 21.5244C268.417 20.5635 268.49 19.6875 268.637 18.8965C268.789 18.0996 269.012 17.3965 269.305 16.7871C269.598 16.1719 269.967 15.6533 270.412 15.2314C270.857 14.8096 271.379 14.4902 271.977 14.2734C272.574 14.0566 273.245 13.9482 273.989 13.9482C274.312 13.9482 274.619 13.9658 274.912 14.001C275.205 14.0361 275.463 14.0859 275.686 14.1504V14.959C275.469 14.8828 275.217 14.8242 274.93 14.7832C274.643 14.7363 274.335 14.7129 274.007 14.7129C272.999 14.7129 272.152 14.9473 271.467 15.416C270.781 15.8789 270.257 16.5732 269.894 17.499C269.536 18.4189 269.337 19.5615 269.296 20.9268H269.357C269.527 20.6104 269.765 20.3086 270.069 20.0215C270.38 19.7344 270.764 19.5 271.221 19.3184C271.684 19.1367 272.229 19.0459 272.855 19.0459C273.629 19.0459 274.294 19.2012 274.851 19.5117C275.413 19.8223 275.844 20.2676 276.143 20.8477C276.447 21.4277 276.6 22.1162 276.6 22.9131C276.6 23.7686 276.441 24.5156 276.125 25.1543C275.814 25.793 275.363 26.291 274.771 26.6484C274.186 27 273.479 27.1758 272.653 27.1758C271.95 27.1758 271.335 27.0322 270.808 26.7451C270.28 26.458 269.838 26.0566 269.48 25.541C269.129 25.0254 268.862 24.4277 268.681 23.748C268.505 23.0625 268.417 22.3213 268.417 21.5244ZM272.645 26.4023C273.611 26.4023 274.361 26.1006 274.895 25.4971C275.434 24.8877 275.703 24.0264 275.703 22.9131C275.703 21.9521 275.457 21.1934 274.965 20.6367C274.473 20.0742 273.729 19.793 272.732 19.793C272.041 19.793 271.443 19.9307 270.939 20.2061C270.441 20.4814 270.058 20.8242 269.788 21.2344C269.519 21.6387 269.384 22.0371 269.384 22.4297C269.384 22.7988 269.437 23.209 269.542 23.6602C269.647 24.1113 269.826 24.5479 270.078 24.9697C270.33 25.3857 270.664 25.7285 271.08 25.998C271.502 26.2676 272.023 26.4023 272.645 26.4023ZM279.008 26.376C279.008 26.1182 279.066 25.9219 279.184 25.7871C279.301 25.6465 279.474 25.5762 279.702 25.5762C279.954 25.5762 280.139 25.6465 280.256 25.7871C280.373 25.9219 280.432 26.1182 280.432 26.376C280.432 26.6338 280.373 26.833 280.256 26.9736C280.139 27.1143 279.954 27.1846 279.702 27.1846C279.474 27.1846 279.301 27.1143 279.184 26.9736C279.066 26.833 279.008 26.6338 279.008 26.376ZM291.084 20.54C291.084 21.6123 291.002 22.5615 290.838 23.3877C290.674 24.2139 290.425 24.9082 290.091 25.4707C289.757 26.0332 289.332 26.458 288.816 26.7451C288.301 27.0322 287.691 27.1758 286.988 27.1758C286.098 27.1758 285.348 26.9268 284.738 26.4287C284.129 25.9307 283.666 25.1895 283.35 24.2051C283.039 23.2207 282.884 21.999 282.884 20.54C282.884 19.2393 283.016 18.0938 283.279 17.1035C283.549 16.1133 283.985 15.3398 284.589 14.7832C285.192 14.2266 285.995 13.9482 286.997 13.9482C287.993 13.9482 288.79 14.2207 289.388 14.7656C289.991 15.3105 290.425 16.0781 290.688 17.0684C290.952 18.0527 291.084 19.21 291.084 20.54ZM283.78 20.54C283.78 21.8584 283.895 22.9512 284.123 23.8184C284.352 24.6797 284.703 25.3242 285.178 25.752C285.652 26.1797 286.256 26.3936 286.988 26.3936C287.744 26.3936 288.356 26.1797 288.825 25.752C289.294 25.3242 289.637 24.6768 289.854 23.8096C290.076 22.9424 290.188 21.8525 290.188 20.54C290.188 19.333 290.091 18.2959 289.897 17.4287C289.71 16.5615 289.385 15.8965 288.922 15.4336C288.459 14.9707 287.817 14.7393 286.997 14.7393C286.194 14.7393 285.559 14.9766 285.09 15.4512C284.621 15.9258 284.284 16.5967 284.079 17.4639C283.88 18.3311 283.78 19.3564 283.78 20.54ZM301.367 20.54C301.367 21.6123 301.285 22.5615 301.121 23.3877C300.957 24.2139 300.708 24.9082 300.374 25.4707C300.04 26.0332 299.615 26.458 299.1 26.7451C298.584 27.0322 297.975 27.1758 297.271 27.1758C296.381 27.1758 295.631 26.9268 295.021 26.4287C294.412 25.9307 293.949 25.1895 293.633 24.2051C293.322 23.2207 293.167 21.999 293.167 20.54C293.167 19.2393 293.299 18.0938 293.562 17.1035C293.832 16.1133 294.269 15.3398 294.872 14.7832C295.476 14.2266 296.278 13.9482 297.28 13.9482C298.276 13.9482 299.073 14.2207 299.671 14.7656C300.274 15.3105 300.708 16.0781 300.972 17.0684C301.235 18.0527 301.367 19.21 301.367 20.54ZM294.063 20.54C294.063 21.8584 294.178 22.9512 294.406 23.8184C294.635 24.6797 294.986 25.3242 295.461 25.752C295.936 26.1797 296.539 26.3936 297.271 26.3936C298.027 26.3936 298.64 26.1797 299.108 25.752C299.577 25.3242 299.92 24.6768 300.137 23.8096C300.359 22.9424 300.471 21.8525 300.471 20.54C300.471 19.333 300.374 18.2959 300.181 17.4287C299.993 16.5615 299.668 15.8965 299.205 15.4336C298.742 14.9707 298.101 14.7393 297.28 14.7393C296.478 14.7393 295.842 14.9766 295.373 15.4512C294.904 15.9258 294.567 16.5967 294.362 17.4639C294.163 18.3311 294.063 19.3564 294.063 20.54ZM311.65 20.54C311.65 21.6123 311.568 22.5615 311.404 23.3877C311.24 24.2139 310.991 24.9082 310.657 25.4707C310.323 26.0332 309.898 26.458 309.383 26.7451C308.867 27.0322 308.258 27.1758 307.555 27.1758C306.664 27.1758 305.914 26.9268 305.305 26.4287C304.695 25.9307 304.232 25.1895 303.916 24.2051C303.605 23.2207 303.45 21.999 303.45 20.54C303.45 19.2393 303.582 18.0938 303.846 17.1035C304.115 16.1133 304.552 15.3398 305.155 14.7832C305.759 14.2266 306.562 13.9482 307.563 13.9482C308.56 13.9482 309.356 14.2207 309.954 14.7656C310.558 15.3105 310.991 16.0781 311.255 17.0684C311.519 18.0527 311.65 19.21 311.65 20.54ZM304.347 20.54C304.347 21.8584 304.461 22.9512 304.689 23.8184C304.918 24.6797 305.27 25.3242 305.744 25.752C306.219 26.1797 306.822 26.3936 307.555 26.3936C308.311 26.3936 308.923 26.1797 309.392 25.752C309.86 25.3242 310.203 24.6768 310.42 23.8096C310.643 22.9424 310.754 21.8525 310.754 20.54C310.754 19.333 310.657 18.2959 310.464 17.4287C310.276 16.5615 309.951 15.8965 309.488 15.4336C309.025 14.9707 308.384 14.7393 307.563 14.7393C306.761 14.7393 306.125 14.9766 305.656 15.4512C305.188 15.9258 304.851 16.5967 304.646 17.4639C304.446 18.3311 304.347 19.3564 304.347 20.54ZM320.097 27H319.191V14.1504H326.223V14.9678H320.097V20.4434H325.889V21.252H320.097V27ZM328.895 13.3242V17.209C328.895 17.543 328.889 17.9092 328.877 18.3076C328.865 18.7061 328.854 19.0371 328.842 19.3008H328.895C329.123 18.709 329.521 18.2197 330.09 17.833C330.658 17.4463 331.367 17.2529 332.217 17.2529C333.459 17.2529 334.417 17.6719 335.091 18.5098C335.771 19.3477 336.11 20.5752 336.11 22.1924C336.11 23.1826 335.958 24.0527 335.653 24.8027C335.349 25.5469 334.895 26.1299 334.291 26.5518C333.693 26.9678 332.943 27.1758 332.041 27.1758C331.227 27.1758 330.562 27.0059 330.046 26.666C329.53 26.3203 329.155 25.8896 328.921 25.374H328.851L328.684 27H328.007V13.3242H328.895ZM332.12 18.0264C331.364 18.0264 330.749 18.1904 330.274 18.5186C329.8 18.8408 329.451 19.3125 329.229 19.9336C329.006 20.5547 328.895 21.3135 328.895 22.21V22.3506C328.895 23.6689 329.135 24.6738 329.615 25.3652C330.096 26.0566 330.875 26.4023 331.953 26.4023C333.02 26.4023 333.825 26.0391 334.37 25.3125C334.921 24.5801 335.196 23.54 335.196 22.1924C335.196 20.8154 334.941 19.7783 334.432 19.0811C333.922 18.3779 333.151 18.0264 332.12 18.0264ZM346.165 17.4463V27H345.444L345.312 25.2773H345.26C345.096 25.6289 344.864 25.9482 344.565 26.2354C344.267 26.5225 343.9 26.751 343.467 26.9209C343.033 27.0908 342.529 27.1758 341.955 27.1758C341.223 27.1758 340.607 27.0498 340.109 26.7979C339.617 26.54 339.245 26.1533 338.993 25.6377C338.741 25.1221 338.615 24.4775 338.615 23.7041V17.4463H339.503V23.6162C339.503 24.5713 339.717 25.2744 340.145 25.7256C340.578 26.1768 341.211 26.4023 342.043 26.4023C342.746 26.4023 343.335 26.2676 343.81 25.998C344.29 25.7285 344.653 25.3213 344.899 24.7764C345.151 24.2256 345.277 23.54 345.277 22.7197V17.4463H346.165Z" fill="black"/>
<path d="M20.3984 62.8125V64H12.9531V62.9609L16.6797 58.8125C17.138 58.3021 17.4922 57.8698 17.7422 57.5156C17.9974 57.1562 18.1745 56.8359 18.2734 56.5547C18.3776 56.2682 18.4297 55.9766 18.4297 55.6797C18.4297 55.3047 18.3516 54.9661 18.1953 54.6641C18.0443 54.3568 17.8203 54.112 17.5234 53.9297C17.2266 53.7474 16.8672 53.6562 16.4453 53.6562C15.9401 53.6562 15.5182 53.7552 15.1797 53.9531C14.8464 54.1458 14.5964 54.4167 14.4297 54.7656C14.263 55.1146 14.1797 55.5156 14.1797 55.9688H12.7344C12.7344 55.3281 12.875 54.7422 13.1562 54.2109C13.4375 53.6797 13.8542 53.2578 14.4062 52.9453C14.9583 52.6276 15.638 52.4688 16.4453 52.4688C17.1641 52.4688 17.7786 52.5964 18.2891 52.8516C18.7995 53.1016 19.1901 53.4557 19.4609 53.9141C19.737 54.3672 19.875 54.8984 19.875 55.5078C19.875 55.8411 19.8177 56.1797 19.7031 56.5234C19.5938 56.862 19.4401 57.2005 19.2422 57.5391C19.0495 57.8776 18.8229 58.2109 18.5625 58.5391C18.3073 58.8672 18.0339 59.1901 17.7422 59.5078L14.6953 62.8125H20.3984ZM29.6328 60.1719V61.3594H21.4141V60.5078L26.5078 52.625H27.6875L26.4219 54.9062L23.0547 60.1719H29.6328ZM28.0469 52.625V64H26.6016V52.625H28.0469ZM38.0781 58.5703V59.7578H34.2656V58.5703H38.0781ZM50.4453 57.4062V59.1406C50.4453 60.0729 50.362 60.8594 50.1953 61.5C50.0286 62.1406 49.7891 62.6562 49.4766 63.0469C49.1641 63.4375 48.7865 63.7214 48.3438 63.8984C47.9062 64.0703 47.4115 64.1562 46.8594 64.1562C46.4219 64.1562 46.0182 64.1016 45.6484 63.9922C45.2786 63.8828 44.9453 63.7083 44.6484 63.4688C44.3568 63.224 44.1068 62.9062 43.8984 62.5156C43.6901 62.125 43.5312 61.651 43.4219 61.0938C43.3125 60.5365 43.2578 59.8854 43.2578 59.1406V57.4062C43.2578 56.474 43.3411 55.6927 43.5078 55.0625C43.6797 54.4323 43.9219 53.9271 44.2344 53.5469C44.5469 53.1615 44.9219 52.8854 45.3594 52.7188C45.8021 52.5521 46.2969 52.4688 46.8438 52.4688C47.2865 52.4688 47.6927 52.5234 48.0625 52.6328C48.4375 52.737 48.7708 52.9062 49.0625 53.1406C49.3542 53.3698 49.6016 53.6771 49.8047 54.0625C50.013 54.4427 50.1719 54.9089 50.2812 55.4609C50.3906 56.013 50.4453 56.6615 50.4453 57.4062ZM48.9922 59.375V57.1641C48.9922 56.6536 48.9609 56.2057 48.8984 55.8203C48.8411 55.4297 48.7552 55.0964 48.6406 54.8203C48.526 54.5443 48.3802 54.3203 48.2031 54.1484C48.0312 53.9766 47.8307 53.8516 47.6016 53.7734C47.3776 53.6901 47.125 53.6484 46.8438 53.6484C46.5 53.6484 46.1953 53.7135 45.9297 53.8438C45.6641 53.9688 45.4401 54.1693 45.2578 54.4453C45.0807 54.7214 44.9453 55.0833 44.8516 55.5312C44.7578 55.9792 44.7109 56.5234 44.7109 57.1641V59.375C44.7109 59.8854 44.7396 60.3359 44.7969 60.7266C44.8594 61.1172 44.9505 61.4557 45.0703 61.7422C45.1901 62.0234 45.3359 62.2552 45.5078 62.4375C45.6797 62.6198 45.8776 62.7552 46.1016 62.8438C46.3307 62.9271 46.5833 62.9688 46.8594 62.9688C47.2135 62.9688 47.5234 62.901 47.7891 62.7656C48.0547 62.6302 48.276 62.4193 48.4531 62.1328C48.6354 61.8411 48.7708 61.4688 48.8594 61.0156C48.9479 60.5573 48.9922 60.0104 48.9922 59.375ZM57.0547 52.5625V64H55.6094V54.3672L52.6953 55.4297V54.125L56.8281 52.5625H57.0547ZM68.4375 58.5703V59.7578H64.625V58.5703H68.4375ZM81.1172 62.8125V64H73.6719V62.9609L77.3984 58.8125C77.8568 58.3021 78.2109 57.8698 78.4609 57.5156C78.7161 57.1562 78.8932 56.8359 78.9922 56.5547C79.0964 56.2682 79.1484 55.9766 79.1484 55.6797C79.1484 55.3047 79.0703 54.9661 78.9141 54.6641C78.763 54.3568 78.5391 54.112 78.2422 53.9297C77.9453 53.7474 77.5859 53.6562 77.1641 53.6562C76.6589 53.6562 76.237 53.7552 75.8984 53.9531C75.5651 54.1458 75.3151 54.4167 75.1484 54.7656C74.9818 55.1146 74.8984 55.5156 74.8984 55.9688H73.4531C73.4531 55.3281 73.5938 54.7422 73.875 54.2109C74.1562 53.6797 74.5729 53.2578 75.125 52.9453C75.6771 52.6276 76.3568 52.4688 77.1641 52.4688C77.8828 52.4688 78.4974 52.5964 79.0078 52.8516C79.5182 53.1016 79.9089 53.4557 80.1797 53.9141C80.4557 54.3672 80.5938 54.8984 80.5938 55.5078C80.5938 55.8411 80.5365 56.1797 80.4219 56.5234C80.3125 56.862 80.1589 57.2005 79.9609 57.5391C79.7682 57.8776 79.5417 58.2109 79.2812 58.5391C79.026 58.8672 78.7526 59.1901 78.4609 59.5078L75.4141 62.8125H81.1172ZM89.8047 57.4062V59.1406C89.8047 60.0729 89.7214 60.8594 89.5547 61.5C89.388 62.1406 89.1484 62.6562 88.8359 63.0469C88.5234 63.4375 88.1458 63.7214 87.7031 63.8984C87.2656 64.0703 86.7708 64.1562 86.2188 64.1562C85.7812 64.1562 85.3776 64.1016 85.0078 63.9922C84.638 63.8828 84.3047 63.7083 84.0078 63.4688C83.7161 63.224 83.4661 62.9062 83.2578 62.5156C83.0495 62.125 82.8906 61.651 82.7812 61.0938C82.6719 60.5365 82.6172 59.8854 82.6172 59.1406V57.4062C82.6172 56.474 82.7005 55.6927 82.8672 55.0625C83.0391 54.4323 83.2812 53.9271 83.5938 53.5469C83.9062 53.1615 84.2812 52.8854 84.7188 52.7188C85.1615 52.5521 85.6562 52.4688 86.2031 52.4688C86.6458 52.4688 87.0521 52.5234 87.4219 52.6328C87.7969 52.737 88.1302 52.9062 88.4219 53.1406C88.7135 53.3698 88.9609 53.6771 89.1641 54.0625C89.3724 54.4427 89.5312 54.9089 89.6406 55.4609C89.75 56.013 89.8047 56.6615 89.8047 57.4062ZM88.3516 59.375V57.1641C88.3516 56.6536 88.3203 56.2057 88.2578 55.8203C88.2005 55.4297 88.1146 55.0964 88 54.8203C87.8854 54.5443 87.7396 54.3203 87.5625 54.1484C87.3906 53.9766 87.1901 53.8516 86.9609 53.7734C86.737 53.6901 86.4844 53.6484 86.2031 53.6484C85.8594 53.6484 85.5547 53.7135 85.2891 53.8438C85.0234 53.9688 84.7995 54.1693 84.6172 54.4453C84.4401 54.7214 84.3047 55.0833 84.2109 55.5312C84.1172 55.9792 84.0703 56.5234 84.0703 57.1641V59.375C84.0703 59.8854 84.099 60.3359 84.1562 60.7266C84.2188 61.1172 84.3099 61.4557 84.4297 61.7422C84.5495 62.0234 84.6953 62.2552 84.8672 62.4375C85.0391 62.6198 85.237 62.7552 85.4609 62.8438C85.6901 62.9271 85.9427 62.9688 86.2188 62.9688C86.5729 62.9688 86.8828 62.901 87.1484 62.7656C87.4141 62.6302 87.6354 62.4193 87.8125 62.1328C87.9948 61.8411 88.1302 61.4688 88.2188 61.0156C88.3073 60.5573 88.3516 60.0104 88.3516 59.375ZM99.1172 62.8125V64H91.6719V62.9609L95.3984 58.8125C95.8568 58.3021 96.2109 57.8698 96.4609 57.5156C96.7161 57.1562 96.8932 56.8359 96.9922 56.5547C97.0964 56.2682 97.1484 55.9766 97.1484 55.6797C97.1484 55.3047 97.0703 54.9661 96.9141 54.6641C96.763 54.3568 96.5391 54.112 96.2422 53.9297C95.9453 53.7474 95.5859 53.6562 95.1641 53.6562C94.6589 53.6562 94.237 53.7552 93.8984 53.9531C93.5651 54.1458 93.3151 54.4167 93.1484 54.7656C92.9818 55.1146 92.8984 55.5156 92.8984 55.9688H91.4531C91.4531 55.3281 91.5938 54.7422 91.875 54.2109C92.1562 53.6797 92.5729 53.2578 93.125 52.9453C93.6771 52.6276 94.3568 52.4688 95.1641 52.4688C95.8828 52.4688 96.4974 52.5964 97.0078 52.8516C97.5182 53.1016 97.9089 53.4557 98.1797 53.9141C98.4557 54.3672 98.5938 54.8984 98.5938 55.5078C98.5938 55.8411 98.5365 56.1797 98.4219 56.5234C98.3125 56.862 98.1589 57.2005 97.9609 57.5391C97.7682 57.8776 97.5417 58.2109 97.2812 58.5391C97.026 58.8672 96.7526 59.1901 96.4609 59.5078L93.4141 62.8125H99.1172ZM108.117 62.8125V64H100.672V62.9609L104.398 58.8125C104.857 58.3021 105.211 57.8698 105.461 57.5156C105.716 57.1562 105.893 56.8359 105.992 56.5547C106.096 56.2682 106.148 55.9766 106.148 55.6797C106.148 55.3047 106.07 54.9661 105.914 54.6641C105.763 54.3568 105.539 54.112 105.242 53.9297C104.945 53.7474 104.586 53.6562 104.164 53.6562C103.659 53.6562 103.237 53.7552 102.898 53.9531C102.565 54.1458 102.315 54.4167 102.148 54.7656C101.982 55.1146 101.898 55.5156 101.898 55.9688H100.453C100.453 55.3281 100.594 54.7422 100.875 54.2109C101.156 53.6797 101.573 53.2578 102.125 52.9453C102.677 52.6276 103.357 52.4688 104.164 52.4688C104.883 52.4688 105.497 52.5964 106.008 52.8516C106.518 53.1016 106.909 53.4557 107.18 53.9141C107.456 54.3672 107.594 54.8984 107.594 55.5078C107.594 55.8411 107.536 56.1797 107.422 56.5234C107.312 56.862 107.159 57.2005 106.961 57.5391C106.768 57.8776 106.542 58.2109 106.281 58.5391C106.026 58.8672 105.753 59.1901 105.461 59.5078L102.414 62.8125H108.117Z" fill="#BEBEBE"/>
<path d="M333.164 60.335H334.477C334.408 60.9639 334.228 61.5267 333.937 62.0234C333.645 62.5202 333.232 62.9144 332.699 63.2061C332.166 63.4932 331.501 63.6367 330.703 63.6367C330.12 63.6367 329.589 63.5273 329.11 63.3086C328.636 63.0898 328.229 62.7799 327.887 62.3789C327.545 61.9733 327.281 61.488 327.094 60.9229C326.911 60.3532 326.82 59.7197 326.82 59.0225V58.0312C326.82 57.334 326.911 56.7028 327.094 56.1377C327.281 55.568 327.547 55.0804 327.894 54.6748C328.244 54.2692 328.666 53.957 329.158 53.7383C329.65 53.5195 330.204 53.4102 330.819 53.4102C331.571 53.4102 332.207 53.5514 332.727 53.834C333.246 54.1165 333.649 54.5085 333.937 55.0098C334.228 55.5065 334.408 56.083 334.477 56.7393H333.164C333.1 56.2744 332.982 55.8757 332.809 55.543C332.635 55.2057 332.389 54.946 332.07 54.7637C331.751 54.5814 331.334 54.4902 330.819 54.4902C330.377 54.4902 329.988 54.5745 329.65 54.7432C329.318 54.9118 329.037 55.151 328.81 55.4609C328.586 55.7708 328.418 56.1423 328.304 56.5752C328.19 57.0081 328.133 57.4889 328.133 58.0176V59.0225C328.133 59.5101 328.183 59.9681 328.283 60.3965C328.388 60.8249 328.545 61.2008 328.755 61.5244C328.965 61.848 329.231 62.1032 329.555 62.29C329.878 62.4723 330.261 62.5635 330.703 62.5635C331.264 62.5635 331.71 62.4746 332.043 62.2969C332.376 62.1191 332.626 61.8639 332.795 61.5312C332.968 61.1986 333.091 60.7998 333.164 60.335ZM340.444 62.2354V58.4277C340.444 58.1361 340.385 57.8831 340.267 57.6689C340.153 57.4502 339.979 57.2816 339.747 57.1631C339.515 57.0446 339.228 56.9854 338.886 56.9854C338.567 56.9854 338.286 57.04 338.045 57.1494C337.808 57.2588 337.621 57.4023 337.484 57.5801C337.352 57.7578 337.286 57.9492 337.286 58.1543H336.021C336.021 57.89 336.09 57.6279 336.227 57.3682C336.363 57.1084 336.559 56.8737 336.814 56.6641C337.074 56.4499 337.384 56.2812 337.744 56.1582C338.109 56.0306 338.514 55.9668 338.961 55.9668C339.499 55.9668 339.973 56.0579 340.383 56.2402C340.798 56.4225 341.121 56.6982 341.354 57.0674C341.59 57.432 341.709 57.89 341.709 58.4414V61.8867C341.709 62.1328 341.729 62.3949 341.771 62.6729C341.816 62.9508 341.882 63.1901 341.969 63.3906V63.5H340.649C340.586 63.3542 340.535 63.1605 340.499 62.9189C340.463 62.6729 340.444 62.445 340.444 62.2354ZM340.663 59.0156L340.677 59.9043H339.398C339.038 59.9043 338.717 59.9339 338.435 59.9932C338.152 60.0479 337.915 60.1322 337.724 60.2461C337.532 60.36 337.386 60.5036 337.286 60.6768C337.186 60.8454 337.136 61.0436 337.136 61.2715C337.136 61.5039 337.188 61.7158 337.293 61.9072C337.398 62.0986 337.555 62.2513 337.765 62.3652C337.979 62.4746 338.241 62.5293 338.551 62.5293C338.938 62.5293 339.28 62.4473 339.576 62.2832C339.872 62.1191 340.107 61.9186 340.28 61.6816C340.458 61.4447 340.554 61.2145 340.567 60.9912L341.107 61.5996C341.076 61.791 340.989 62.0029 340.848 62.2354C340.706 62.4678 340.517 62.6911 340.28 62.9053C340.048 63.1149 339.77 63.2904 339.446 63.4316C339.127 63.5684 338.767 63.6367 338.366 63.6367C337.865 63.6367 337.425 63.5387 337.047 63.3428C336.673 63.1468 336.382 62.8848 336.172 62.5566C335.967 62.224 335.864 61.8525 335.864 61.4424C335.864 61.0459 335.942 60.6973 336.097 60.3965C336.252 60.0911 336.475 59.8382 336.767 59.6377C337.058 59.4326 337.409 59.2777 337.819 59.1729C338.229 59.068 338.688 59.0156 339.193 59.0156H340.663ZM344.963 57.2656V63.5H343.698V56.1035H344.929L344.963 57.2656ZM347.273 56.0625L347.267 57.2383C347.162 57.2155 347.062 57.2018 346.966 57.1973C346.875 57.1882 346.77 57.1836 346.651 57.1836C346.36 57.1836 346.102 57.2292 345.879 57.3203C345.656 57.4115 345.466 57.5391 345.312 57.7031C345.157 57.8672 345.034 58.0632 344.942 58.291C344.856 58.5143 344.799 58.7604 344.771 59.0293L344.416 59.2344C344.416 58.7878 344.459 58.3685 344.546 57.9766C344.637 57.5846 344.776 57.2383 344.963 56.9375C345.15 56.6322 345.387 56.3952 345.674 56.2266C345.965 56.0534 346.312 55.9668 346.713 55.9668C346.804 55.9668 346.909 55.9782 347.027 56.001C347.146 56.0192 347.228 56.0397 347.273 56.0625Z" fill="#FFA631"/>
<path d="M17.2295 90.1504C18.2842 90.1504 19.1543 90.2822 19.8398 90.5459C20.5312 90.8037 21.0469 91.1992 21.3867 91.7324C21.7266 92.2656 21.8965 92.9453 21.8965 93.7715C21.8965 94.4512 21.7734 95.0195 21.5273 95.4766C21.2812 95.9277 20.959 96.2939 20.5605 96.5752C20.1621 96.8564 19.7373 97.0732 19.2861 97.2256L22.8105 103H21.0703L17.9238 97.6387H15.252V103H13.7578V90.1504H17.2295ZM17.1416 91.4424H15.252V96.373H17.291C18.3398 96.373 19.1104 96.1592 19.6025 95.7314C20.1006 95.3037 20.3496 94.6738 20.3496 93.8418C20.3496 92.9688 20.0859 92.3506 19.5586 91.9873C19.0371 91.624 18.2314 91.4424 17.1416 91.4424ZM28.3564 93.1914C29.1768 93.1914 29.8799 93.373 30.4658 93.7363C31.0518 94.0996 31.5 94.6094 31.8105 95.2656C32.1211 95.916 32.2764 96.6777 32.2764 97.5508V98.4561H25.623C25.6406 99.5869 25.9219 100.448 26.4668 101.04C27.0117 101.632 27.7793 101.928 28.7695 101.928C29.3789 101.928 29.918 101.872 30.3867 101.761C30.8555 101.649 31.3418 101.485 31.8457 101.269V102.552C31.3594 102.769 30.876 102.927 30.3955 103.026C29.9209 103.126 29.3584 103.176 28.708 103.176C27.7822 103.176 26.9736 102.988 26.2822 102.613C25.5967 102.232 25.0635 101.676 24.6826 100.943C24.3018 100.211 24.1113 99.3145 24.1113 98.2539C24.1113 97.2168 24.2842 96.3203 24.6299 95.5645C24.9814 94.8027 25.4736 94.2168 26.1064 93.8066C26.7451 93.3965 27.4951 93.1914 28.3564 93.1914ZM28.3389 94.3867C27.5596 94.3867 26.9385 94.6416 26.4756 95.1514C26.0127 95.6611 25.7373 96.373 25.6494 97.2871H30.7471C30.7412 96.7129 30.6504 96.209 30.4746 95.7754C30.3047 95.3359 30.0439 94.9961 29.6924 94.7559C29.3408 94.5098 28.8896 94.3867 28.3389 94.3867ZM39.3164 93.1914C40.459 93.1914 41.3232 93.4727 41.9092 94.0352C42.4951 94.5918 42.7881 95.4883 42.7881 96.7246V103H41.3467V96.8213C41.3467 96.0186 41.1621 95.418 40.793 95.0195C40.4297 94.6211 39.8701 94.4219 39.1143 94.4219C38.0479 94.4219 37.2979 94.7236 36.8643 95.3271C36.4307 95.9307 36.2139 96.8066 36.2139 97.9551V103H34.7549V93.3672H35.9326L36.1523 94.7559H36.2314C36.4365 94.416 36.6973 94.1318 37.0137 93.9033C37.3301 93.6689 37.6846 93.4932 38.0771 93.376C38.4697 93.2529 38.8828 93.1914 39.3164 93.1914ZM48.9053 101.98C49.1455 101.98 49.3916 101.96 49.6436 101.919C49.8955 101.878 50.1006 101.828 50.2588 101.77V102.903C50.0889 102.979 49.8516 103.044 49.5469 103.097C49.248 103.149 48.9551 103.176 48.668 103.176C48.1582 103.176 47.6953 103.088 47.2793 102.912C46.8633 102.73 46.5293 102.426 46.2773 101.998C46.0312 101.57 45.9082 100.979 45.9082 100.223V94.5098H44.5371V93.7979L45.917 93.2266L46.4971 91.1348H47.376V93.3672H50.1973V94.5098H47.376V100.179C47.376 100.782 47.5137 101.233 47.7891 101.532C48.0703 101.831 48.4424 101.98 48.9053 101.98Z" fill="black"/>
<path d="M255.035 103H246.993V102.244L250.772 98.3066C251.376 97.6797 251.883 97.1143 252.293 96.6104C252.709 96.1006 253.022 95.5908 253.233 95.0811C253.45 94.5713 253.559 94 253.559 93.3672C253.559 92.541 253.315 91.8994 252.829 91.4424C252.349 90.9854 251.695 90.7568 250.869 90.7568C250.312 90.7568 249.776 90.8564 249.261 91.0557C248.751 91.2549 248.253 91.5479 247.767 91.9346L247.274 91.3105C247.632 91.0176 248.007 90.7715 248.399 90.5723C248.798 90.373 249.205 90.2236 249.621 90.124C250.037 90.0186 250.453 89.9658 250.869 89.9658C251.602 89.9658 252.234 90.1064 252.768 90.3877C253.307 90.6631 253.726 91.0527 254.024 91.5566C254.323 92.0605 254.473 92.6523 254.473 93.332C254.473 94.0352 254.35 94.6738 254.104 95.248C253.863 95.8164 253.521 96.373 253.075 96.918C252.63 97.4629 252.103 98.0488 251.493 98.6758L248.145 102.139V102.174H255.035V103ZM261.223 95.2568C262.09 95.2568 262.837 95.4033 263.464 95.6963C264.097 95.9893 264.583 96.417 264.923 96.9795C265.269 97.5361 265.441 98.2188 265.441 99.0273C265.441 99.8828 265.251 100.621 264.87 101.242C264.489 101.863 263.95 102.341 263.253 102.675C262.562 103.009 261.744 103.176 260.801 103.176C260.121 103.176 259.503 103.111 258.946 102.982C258.396 102.848 257.93 102.669 257.549 102.446V101.55C257.959 101.796 258.448 101.998 259.017 102.156C259.591 102.314 260.188 102.394 260.81 102.394C261.56 102.394 262.213 102.268 262.77 102.016C263.326 101.758 263.757 101.383 264.062 100.891C264.372 100.398 264.527 99.7949 264.527 99.0801C264.527 98.125 264.237 97.3809 263.657 96.8477C263.077 96.3086 262.201 96.0391 261.029 96.0391C260.549 96.0391 260.089 96.0742 259.649 96.1445C259.216 96.209 258.812 96.291 258.437 96.3906L257.927 96.0303L258.445 90.1504H264.615V90.9766H259.21L258.814 95.5557C259.078 95.4912 259.409 95.4268 259.808 95.3623C260.212 95.292 260.684 95.2568 261.223 95.2568ZM275.795 96.54C275.795 97.6123 275.713 98.5615 275.549 99.3877C275.385 100.214 275.136 100.908 274.802 101.471C274.468 102.033 274.043 102.458 273.527 102.745C273.012 103.032 272.402 103.176 271.699 103.176C270.809 103.176 270.059 102.927 269.449 102.429C268.84 101.931 268.377 101.189 268.061 100.205C267.75 99.2207 267.595 97.999 267.595 96.54C267.595 95.2393 267.727 94.0938 267.99 93.1035C268.26 92.1133 268.696 91.3398 269.3 90.7832C269.903 90.2266 270.706 89.9482 271.708 89.9482C272.704 89.9482 273.501 90.2207 274.099 90.7656C274.702 91.3105 275.136 92.0781 275.399 93.0684C275.663 94.0527 275.795 95.21 275.795 96.54ZM268.491 96.54C268.491 97.8584 268.605 98.9512 268.834 99.8184C269.062 100.68 269.414 101.324 269.889 101.752C270.363 102.18 270.967 102.394 271.699 102.394C272.455 102.394 273.067 102.18 273.536 101.752C274.005 101.324 274.348 100.677 274.564 99.8096C274.787 98.9424 274.898 97.8525 274.898 96.54C274.898 95.333 274.802 94.2959 274.608 93.4287C274.421 92.5615 274.096 91.8965 273.633 91.4336C273.17 90.9707 272.528 90.7393 271.708 90.7393C270.905 90.7393 270.27 90.9766 269.801 91.4512C269.332 91.9258 268.995 92.5967 268.79 93.4639C268.591 94.3311 268.491 95.3564 268.491 96.54ZM278.291 102.376C278.291 102.118 278.35 101.922 278.467 101.787C278.584 101.646 278.757 101.576 278.985 101.576C279.237 101.576 279.422 101.646 279.539 101.787C279.656 101.922 279.715 102.118 279.715 102.376C279.715 102.634 279.656 102.833 279.539 102.974C279.422 103.114 279.237 103.185 278.985 103.185C278.757 103.185 278.584 103.114 278.467 102.974C278.35 102.833 278.291 102.634 278.291 102.376ZM290.367 96.54C290.367 97.6123 290.285 98.5615 290.121 99.3877C289.957 100.214 289.708 100.908 289.374 101.471C289.04 102.033 288.615 102.458 288.1 102.745C287.584 103.032 286.975 103.176 286.271 103.176C285.381 103.176 284.631 102.927 284.021 102.429C283.412 101.931 282.949 101.189 282.633 100.205C282.322 99.2207 282.167 97.999 282.167 96.54C282.167 95.2393 282.299 94.0938 282.562 93.1035C282.832 92.1133 283.269 91.3398 283.872 90.7832C284.476 90.2266 285.278 89.9482 286.28 89.9482C287.276 89.9482 288.073 90.2207 288.671 90.7656C289.274 91.3105 289.708 92.0781 289.972 93.0684C290.235 94.0527 290.367 95.21 290.367 96.54ZM283.063 96.54C283.063 97.8584 283.178 98.9512 283.406 99.8184C283.635 100.68 283.986 101.324 284.461 101.752C284.936 102.18 285.539 102.394 286.271 102.394C287.027 102.394 287.64 102.18 288.108 101.752C288.577 101.324 288.92 100.677 289.137 99.8096C289.359 98.9424 289.471 97.8525 289.471 96.54C289.471 95.333 289.374 94.2959 289.181 93.4287C288.993 92.5615 288.668 91.8965 288.205 91.4336C287.742 90.9707 287.101 90.7393 286.28 90.7393C285.478 90.7393 284.842 90.9766 284.373 91.4512C283.904 91.9258 283.567 92.5967 283.362 93.4639C283.163 94.3311 283.063 95.3564 283.063 96.54ZM300.65 96.54C300.65 97.6123 300.568 98.5615 300.404 99.3877C300.24 100.214 299.991 100.908 299.657 101.471C299.323 102.033 298.898 102.458 298.383 102.745C297.867 103.032 297.258 103.176 296.555 103.176C295.664 103.176 294.914 102.927 294.305 102.429C293.695 101.931 293.232 101.189 292.916 100.205C292.605 99.2207 292.45 97.999 292.45 96.54C292.45 95.2393 292.582 94.0938 292.846 93.1035C293.115 92.1133 293.552 91.3398 294.155 90.7832C294.759 90.2266 295.562 89.9482 296.563 89.9482C297.56 89.9482 298.356 90.2207 298.954 90.7656C299.558 91.3105 299.991 92.0781 300.255 93.0684C300.519 94.0527 300.65 95.21 300.65 96.54ZM293.347 96.54C293.347 97.8584 293.461 98.9512 293.689 99.8184C293.918 100.68 294.27 101.324 294.744 101.752C295.219 102.18 295.822 102.394 296.555 102.394C297.311 102.394 297.923 102.18 298.392 101.752C298.86 101.324 299.203 100.677 299.42 99.8096C299.643 98.9424 299.754 97.8525 299.754 96.54C299.754 95.333 299.657 94.2959 299.464 93.4287C299.276 92.5615 298.951 91.8965 298.488 91.4336C298.025 90.9707 297.384 90.7393 296.563 90.7393C295.761 90.7393 295.125 90.9766 294.656 91.4512C294.188 91.9258 293.851 92.5967 293.646 93.4639C293.446 94.3311 293.347 95.3564 293.347 96.54ZM310.934 96.54C310.934 97.6123 310.852 98.5615 310.688 99.3877C310.523 100.214 310.274 100.908 309.94 101.471C309.606 102.033 309.182 102.458 308.666 102.745C308.15 103.032 307.541 103.176 306.838 103.176C305.947 103.176 305.197 102.927 304.588 102.429C303.979 101.931 303.516 101.189 303.199 100.205C302.889 99.2207 302.733 97.999 302.733 96.54C302.733 95.2393 302.865 94.0938 303.129 93.1035C303.398 92.1133 303.835 91.3398 304.438 90.7832C305.042 90.2266 305.845 89.9482 306.847 89.9482C307.843 89.9482 308.64 90.2207 309.237 90.7656C309.841 91.3105 310.274 92.0781 310.538 93.0684C310.802 94.0527 310.934 95.21 310.934 96.54ZM303.63 96.54C303.63 97.8584 303.744 98.9512 303.973 99.8184C304.201 100.68 304.553 101.324 305.027 101.752C305.502 102.18 306.105 102.394 306.838 102.394C307.594 102.394 308.206 102.18 308.675 101.752C309.144 101.324 309.486 100.677 309.703 99.8096C309.926 98.9424 310.037 97.8525 310.037 96.54C310.037 95.333 309.94 94.2959 309.747 93.4287C309.56 92.5615 309.234 91.8965 308.771 91.4336C308.309 90.9707 307.667 90.7393 306.847 90.7393C306.044 90.7393 305.408 90.9766 304.939 91.4512C304.471 91.9258 304.134 92.5967 303.929 93.4639C303.729 94.3311 303.63 95.3564 303.63 96.54ZM319.38 103H318.475V90.1504H325.506V90.9678H319.38V96.4434H325.172V97.252H319.38V103ZM328.178 89.3242V93.209C328.178 93.543 328.172 93.9092 328.16 94.3076C328.148 94.7061 328.137 95.0371 328.125 95.3008H328.178C328.406 94.709 328.805 94.2197 329.373 93.833C329.941 93.4463 330.65 93.2529 331.5 93.2529C332.742 93.2529 333.7 93.6719 334.374 94.5098C335.054 95.3477 335.394 96.5752 335.394 98.1924C335.394 99.1826 335.241 100.053 334.937 100.803C334.632 101.547 334.178 102.13 333.574 102.552C332.977 102.968 332.227 103.176 331.324 103.176C330.51 103.176 329.845 103.006 329.329 102.666C328.813 102.32 328.438 101.89 328.204 101.374H328.134L327.967 103H327.29V89.3242H328.178ZM331.403 94.0264C330.647 94.0264 330.032 94.1904 329.558 94.5186C329.083 94.8408 328.734 95.3125 328.512 95.9336C328.289 96.5547 328.178 97.3135 328.178 98.21V98.3506C328.178 99.6689 328.418 100.674 328.898 101.365C329.379 102.057 330.158 102.402 331.236 102.402C332.303 102.402 333.108 102.039 333.653 101.312C334.204 100.58 334.479 99.54 334.479 98.1924C334.479 96.8154 334.225 95.7783 333.715 95.0811C333.205 94.3779 332.435 94.0264 331.403 94.0264ZM345.448 93.4463V103H344.728L344.596 101.277H344.543C344.379 101.629 344.147 101.948 343.849 102.235C343.55 102.522 343.184 102.751 342.75 102.921C342.316 103.091 341.812 103.176 341.238 103.176C340.506 103.176 339.891 103.05 339.393 102.798C338.9 102.54 338.528 102.153 338.276 101.638C338.024 101.122 337.898 100.478 337.898 99.7041V93.4463H338.786V99.6162C338.786 100.571 339 101.274 339.428 101.726C339.861 102.177 340.494 102.402 341.326 102.402C342.029 102.402 342.618 102.268 343.093 101.998C343.573 101.729 343.937 101.321 344.183 100.776C344.435 100.226 344.561 99.54 344.561 98.7197V93.4463H345.448Z" fill="black"/>
<path d="M20.3984 138.812V140H12.9531V138.961L16.6797 134.812C17.138 134.302 17.4922 133.87 17.7422 133.516C17.9974 133.156 18.1745 132.836 18.2734 132.555C18.3776 132.268 18.4297 131.977 18.4297 131.68C18.4297 131.305 18.3516 130.966 18.1953 130.664C18.0443 130.357 17.8203 130.112 17.5234 129.93C17.2266 129.747 16.8672 129.656 16.4453 129.656C15.9401 129.656 15.5182 129.755 15.1797 129.953C14.8464 130.146 14.5964 130.417 14.4297 130.766C14.263 131.115 14.1797 131.516 14.1797 131.969H12.7344C12.7344 131.328 12.875 130.742 13.1562 130.211C13.4375 129.68 13.8542 129.258 14.4062 128.945C14.9583 128.628 15.638 128.469 16.4453 128.469C17.1641 128.469 17.7786 128.596 18.2891 128.852C18.7995 129.102 19.1901 129.456 19.4609 129.914C19.737 130.367 19.875 130.898 19.875 131.508C19.875 131.841 19.8177 132.18 19.7031 132.523C19.5938 132.862 19.4401 133.201 19.2422 133.539C19.0495 133.878 18.8229 134.211 18.5625 134.539C18.3073 134.867 18.0339 135.19 17.7422 135.508L14.6953 138.812H20.3984ZM29.3984 138.812V140H21.9531V138.961L25.6797 134.812C26.138 134.302 26.4922 133.87 26.7422 133.516C26.9974 133.156 27.1745 132.836 27.2734 132.555C27.3776 132.268 27.4297 131.977 27.4297 131.68C27.4297 131.305 27.3516 130.966 27.1953 130.664C27.0443 130.357 26.8203 130.112 26.5234 129.93C26.2266 129.747 25.8672 129.656 25.4453 129.656C24.9401 129.656 24.5182 129.755 24.1797 129.953C23.8464 130.146 23.5964 130.417 23.4297 130.766C23.263 131.115 23.1797 131.516 23.1797 131.969H21.7344C21.7344 131.328 21.875 130.742 22.1562 130.211C22.4375 129.68 22.8542 129.258 23.4062 128.945C23.9583 128.628 24.638 128.469 25.4453 128.469C26.1641 128.469 26.7786 128.596 27.2891 128.852C27.7995 129.102 28.1901 129.456 28.4609 129.914C28.737 130.367 28.875 130.898 28.875 131.508C28.875 131.841 28.8177 132.18 28.7031 132.523C28.5938 132.862 28.4401 133.201 28.2422 133.539C28.0495 133.878 27.8229 134.211 27.5625 134.539C27.3073 134.867 27.0339 135.19 26.7422 135.508L23.6953 138.812H29.3984ZM38.0781 134.57V135.758H34.2656V134.57H38.0781ZM50.4453 133.406V135.141C50.4453 136.073 50.362 136.859 50.1953 137.5C50.0286 138.141 49.7891 138.656 49.4766 139.047C49.1641 139.438 48.7865 139.721 48.3438 139.898C47.9062 140.07 47.4115 140.156 46.8594 140.156C46.4219 140.156 46.0182 140.102 45.6484 139.992C45.2786 139.883 44.9453 139.708 44.6484 139.469C44.3568 139.224 44.1068 138.906 43.8984 138.516C43.6901 138.125 43.5312 137.651 43.4219 137.094C43.3125 136.536 43.2578 135.885 43.2578 135.141V133.406C43.2578 132.474 43.3411 131.693 43.5078 131.062C43.6797 130.432 43.9219 129.927 44.2344 129.547C44.5469 129.161 44.9219 128.885 45.3594 128.719C45.8021 128.552 46.2969 128.469 46.8438 128.469C47.2865 128.469 47.6927 128.523 48.0625 128.633C48.4375 128.737 48.7708 128.906 49.0625 129.141C49.3542 129.37 49.6016 129.677 49.8047 130.062C50.013 130.443 50.1719 130.909 50.2812 131.461C50.3906 132.013 50.4453 132.661 50.4453 133.406ZM48.9922 135.375V133.164C48.9922 132.654 48.9609 132.206 48.8984 131.82C48.8411 131.43 48.7552 131.096 48.6406 130.82C48.526 130.544 48.3802 130.32 48.2031 130.148C48.0312 129.977 47.8307 129.852 47.6016 129.773C47.3776 129.69 47.125 129.648 46.8438 129.648C46.5 129.648 46.1953 129.714 45.9297 129.844C45.6641 129.969 45.4401 130.169 45.2578 130.445C45.0807 130.721 44.9453 131.083 44.8516 131.531C44.7578 131.979 44.7109 132.523 44.7109 133.164V135.375C44.7109 135.885 44.7396 136.336 44.7969 136.727C44.8594 137.117 44.9505 137.456 45.0703 137.742C45.1901 138.023 45.3359 138.255 45.5078 138.438C45.6797 138.62 45.8776 138.755 46.1016 138.844C46.3307 138.927 46.5833 138.969 46.8594 138.969C47.2135 138.969 47.5234 138.901 47.7891 138.766C48.0547 138.63 48.276 138.419 48.4531 138.133C48.6354 137.841 48.7708 137.469 48.8594 137.016C48.9479 136.557 48.9922 136.01 48.9922 135.375ZM57.0547 128.562V140H55.6094V130.367L52.6953 131.43V130.125L56.8281 128.562H57.0547ZM68.4375 134.57V135.758H64.625V134.57H68.4375ZM81.1172 138.812V140H73.6719V138.961L77.3984 134.812C77.8568 134.302 78.2109 133.87 78.4609 133.516C78.7161 133.156 78.8932 132.836 78.9922 132.555C79.0964 132.268 79.1484 131.977 79.1484 131.68C79.1484 131.305 79.0703 130.966 78.9141 130.664C78.763 130.357 78.5391 130.112 78.2422 129.93C77.9453 129.747 77.5859 129.656 77.1641 129.656C76.6589 129.656 76.237 129.755 75.8984 129.953C75.5651 130.146 75.3151 130.417 75.1484 130.766C74.9818 131.115 74.8984 131.516 74.8984 131.969H73.4531C73.4531 131.328 73.5938 130.742 73.875 130.211C74.1562 129.68 74.5729 129.258 75.125 128.945C75.6771 128.628 76.3568 128.469 77.1641 128.469C77.8828 128.469 78.4974 128.596 79.0078 128.852C79.5182 129.102 79.9089 129.456 80.1797 129.914C80.4557 130.367 80.5938 130.898 80.5938 131.508C80.5938 131.841 80.5365 132.18 80.4219 132.523C80.3125 132.862 80.1589 133.201 79.9609 133.539C79.7682 133.878 79.5417 134.211 79.2812 134.539C79.026 134.867 78.7526 135.19 78.4609 135.508L75.4141 138.812H81.1172ZM89.8047 133.406V135.141C89.8047 136.073 89.7214 136.859 89.5547 137.5C89.388 138.141 89.1484 138.656 88.8359 139.047C88.5234 139.438 88.1458 139.721 87.7031 139.898C87.2656 140.07 86.7708 140.156 86.2188 140.156C85.7812 140.156 85.3776 140.102 85.0078 139.992C84.638 139.883 84.3047 139.708 84.0078 139.469C83.7161 139.224 83.4661 138.906 83.2578 138.516C83.0495 138.125 82.8906 137.651 82.7812 137.094C82.6719 136.536 82.6172 135.885 82.6172 135.141V133.406C82.6172 132.474 82.7005 131.693 82.8672 131.062C83.0391 130.432 83.2812 129.927 83.5938 129.547C83.9062 129.161 84.2812 128.885 84.7188 128.719C85.1615 128.552 85.6562 128.469 86.2031 128.469C86.6458 128.469 87.0521 128.523 87.4219 128.633C87.7969 128.737 88.1302 128.906 88.4219 129.141C88.7135 129.37 88.9609 129.677 89.1641 130.062C89.3724 130.443 89.5312 130.909 89.6406 131.461C89.75 132.013 89.8047 132.661 89.8047 133.406ZM88.3516 135.375V133.164C88.3516 132.654 88.3203 132.206 88.2578 131.82C88.2005 131.43 88.1146 131.096 88 130.82C87.8854 130.544 87.7396 130.32 87.5625 130.148C87.3906 129.977 87.1901 129.852 86.9609 129.773C86.737 129.69 86.4844 129.648 86.2031 129.648C85.8594 129.648 85.5547 129.714 85.2891 129.844C85.0234 129.969 84.7995 130.169 84.6172 130.445C84.4401 130.721 84.3047 131.083 84.2109 131.531C84.1172 131.979 84.0703 132.523 84.0703 133.164V135.375C84.0703 135.885 84.099 136.336 84.1562 136.727C84.2188 137.117 84.3099 137.456 84.4297 137.742C84.5495 138.023 84.6953 138.255 84.8672 138.438C85.0391 138.62 85.237 138.755 85.4609 138.844C85.6901 138.927 85.9427 138.969 86.2188 138.969C86.5729 138.969 86.8828 138.901 87.1484 138.766C87.4141 138.63 87.6354 138.419 87.8125 138.133C87.9948 137.841 88.1302 137.469 88.2188 137.016C88.3073 136.557 88.3516 136.01 88.3516 135.375ZM99.1172 138.812V140H91.6719V138.961L95.3984 134.812C95.8568 134.302 96.2109 133.87 96.4609 133.516C96.7161 133.156 96.8932 132.836 96.9922 132.555C97.0964 132.268 97.1484 131.977 97.1484 131.68C97.1484 131.305 97.0703 130.966 96.9141 130.664C96.763 130.357 96.5391 130.112 96.2422 129.93C95.9453 129.747 95.5859 129.656 95.1641 129.656C94.6589 129.656 94.237 129.755 93.8984 129.953C93.5651 130.146 93.3151 130.417 93.1484 130.766C92.9818 131.115 92.8984 131.516 92.8984 131.969H91.4531C91.4531 131.328 91.5938 130.742 91.875 130.211C92.1562 129.68 92.5729 129.258 93.125 128.945C93.6771 128.628 94.3568 128.469 95.1641 128.469C95.8828 128.469 96.4974 128.596 97.0078 128.852C97.5182 129.102 97.9089 129.456 98.1797 129.914C98.4557 130.367 98.5938 130.898 98.5938 131.508C98.5938 131.841 98.5365 132.18 98.4219 132.523C98.3125 132.862 98.1589 133.201 97.9609 133.539C97.7682 133.878 97.5417 134.211 97.2812 134.539C97.026 134.867 96.7526 135.19 96.4609 135.508L93.4141 138.812H99.1172ZM108.117 138.812V140H100.672V138.961L104.398 134.812C104.857 134.302 105.211 133.87 105.461 133.516C105.716 133.156 105.893 132.836 105.992 132.555C106.096 132.268 106.148 131.977 106.148 131.68C106.148 131.305 106.07 130.966 105.914 130.664C105.763 130.357 105.539 130.112 105.242 129.93C104.945 129.747 104.586 129.656 104.164 129.656C103.659 129.656 103.237 129.755 102.898 129.953C102.565 130.146 102.315 130.417 102.148 130.766C101.982 131.115 101.898 131.516 101.898 131.969H100.453C100.453 131.328 100.594 130.742 100.875 130.211C101.156 129.68 101.573 129.258 102.125 128.945C102.677 128.628 103.357 128.469 104.164 128.469C104.883 128.469 105.497 128.596 106.008 128.852C106.518 129.102 106.909 129.456 107.18 129.914C107.456 130.367 107.594 130.898 107.594 131.508C107.594 131.841 107.536 132.18 107.422 132.523C107.312 132.862 107.159 133.201 106.961 133.539C106.768 133.878 106.542 134.211 106.281 134.539C106.026 134.867 105.753 135.19 105.461 135.508L102.414 138.812H108.117Z" fill="#BEBEBE"/>
<path d="M320.155 129.547H323.45C324.198 129.547 324.829 129.661 325.344 129.889C325.863 130.117 326.257 130.454 326.526 130.9C326.8 131.342 326.937 131.887 326.937 132.534C326.937 132.99 326.843 133.407 326.656 133.785C326.474 134.159 326.21 134.478 325.863 134.742C325.521 135.002 325.111 135.196 324.633 135.323L324.264 135.467H321.167L321.153 134.394H323.491C323.965 134.394 324.359 134.312 324.674 134.147C324.988 133.979 325.225 133.753 325.385 133.471C325.544 133.188 325.624 132.876 325.624 132.534C325.624 132.151 325.549 131.816 325.398 131.529C325.248 131.242 325.011 131.021 324.688 130.866C324.368 130.707 323.956 130.627 323.45 130.627H321.475V139.5H320.155V129.547ZM325.973 139.5L323.553 134.988L324.927 134.981L327.381 139.418V139.5H325.973ZM331.66 139.637C331.145 139.637 330.678 139.55 330.259 139.377C329.844 139.199 329.486 138.951 329.186 138.632C328.889 138.313 328.661 137.935 328.502 137.497C328.342 137.06 328.263 136.581 328.263 136.062V135.774C328.263 135.173 328.352 134.637 328.529 134.168C328.707 133.694 328.949 133.293 329.254 132.965C329.559 132.637 329.906 132.388 330.293 132.22C330.68 132.051 331.081 131.967 331.496 131.967C332.025 131.967 332.48 132.058 332.863 132.24C333.251 132.423 333.567 132.678 333.813 133.006C334.06 133.329 334.242 133.712 334.36 134.154C334.479 134.592 334.538 135.07 334.538 135.59V136.157H329.015V135.125H333.273V135.029C333.255 134.701 333.187 134.382 333.068 134.072C332.954 133.762 332.772 133.507 332.521 133.307C332.271 133.106 331.929 133.006 331.496 133.006C331.209 133.006 330.945 133.067 330.703 133.19C330.462 133.309 330.254 133.487 330.081 133.724C329.908 133.961 329.773 134.25 329.678 134.592C329.582 134.934 329.534 135.328 329.534 135.774V136.062C329.534 136.412 329.582 136.743 329.678 137.053C329.778 137.358 329.922 137.627 330.108 137.859C330.3 138.092 330.53 138.274 330.799 138.406C331.072 138.538 331.382 138.604 331.729 138.604C332.175 138.604 332.553 138.513 332.863 138.331C333.173 138.149 333.444 137.905 333.677 137.6L334.442 138.208C334.283 138.45 334.08 138.68 333.834 138.898C333.588 139.117 333.285 139.295 332.925 139.432C332.569 139.568 332.148 139.637 331.66 139.637ZM337.279 133.683V139.5H336.015V132.104H337.211L337.279 133.683ZM336.979 135.521L336.452 135.501C336.457 134.995 336.532 134.528 336.678 134.1C336.824 133.667 337.029 133.291 337.293 132.972C337.557 132.653 337.872 132.407 338.236 132.233C338.605 132.056 339.013 131.967 339.46 131.967C339.825 131.967 340.153 132.017 340.444 132.117C340.736 132.213 340.984 132.368 341.189 132.582C341.399 132.796 341.559 133.074 341.668 133.416C341.777 133.753 341.832 134.166 341.832 134.653V139.5H340.561V134.64C340.561 134.252 340.504 133.942 340.39 133.71C340.276 133.473 340.109 133.302 339.891 133.197C339.672 133.088 339.403 133.033 339.084 133.033C338.77 133.033 338.482 133.099 338.223 133.231C337.967 133.364 337.746 133.546 337.56 133.778C337.377 134.011 337.234 134.277 337.129 134.578C337.029 134.874 336.979 135.189 336.979 135.521ZM346.85 132.104V133.074H342.851V132.104H346.85ZM344.204 130.306H345.469V137.668C345.469 137.919 345.507 138.108 345.585 138.235C345.662 138.363 345.763 138.447 345.886 138.488C346.009 138.529 346.141 138.55 346.282 138.55C346.387 138.55 346.496 138.541 346.61 138.522C346.729 138.5 346.818 138.481 346.877 138.468L346.884 139.5C346.784 139.532 346.651 139.562 346.487 139.589C346.328 139.621 346.134 139.637 345.906 139.637C345.596 139.637 345.312 139.575 345.052 139.452C344.792 139.329 344.585 139.124 344.43 138.837C344.279 138.545 344.204 138.153 344.204 137.661V130.306Z" fill="#FFA631"/>
<rect width="360" height="76" transform="translate(0 152)" fill="#F7F7F7"/>
<path d="M21.8174 179L20.2354 174.922H15.085L13.5117 179H12L17.0273 166.098H18.3721L23.3643 179H21.8174ZM19.7871 173.595L18.2842 169.543C18.249 169.438 18.1904 169.265 18.1084 169.024C18.0322 168.784 17.9531 168.535 17.8711 168.277C17.7891 168.02 17.7217 167.812 17.6689 167.653C17.6104 167.894 17.5459 168.134 17.4756 168.374C17.4111 168.608 17.3467 168.828 17.2822 169.033C17.2178 169.232 17.1621 169.402 17.1152 169.543L15.5859 173.595H19.7871ZM35.3877 169.191C36.4482 169.191 37.248 169.47 37.7871 170.026C38.3262 170.577 38.5957 171.465 38.5957 172.689V179H37.1543V172.76C37.1543 171.98 36.9844 171.397 36.6445 171.011C36.3105 170.618 35.8125 170.422 35.1504 170.422C34.2188 170.422 33.542 170.691 33.1201 171.23C32.6982 171.77 32.4873 172.563 32.4873 173.612V179H31.0371V172.76C31.0371 172.238 30.9609 171.805 30.8086 171.459C30.6621 171.113 30.4395 170.855 30.1406 170.686C29.8477 170.51 29.4756 170.422 29.0244 170.422C28.3857 170.422 27.873 170.554 27.4863 170.817C27.0996 171.081 26.8184 171.474 26.6426 171.995C26.4727 172.511 26.3877 173.146 26.3877 173.902V179H24.9287V169.367H26.1064L26.3262 170.729H26.4053C26.5986 170.396 26.8418 170.114 27.1348 169.886C27.4277 169.657 27.7559 169.484 28.1191 169.367C28.4824 169.25 28.8691 169.191 29.2793 169.191C30.0117 169.191 30.624 169.329 31.1162 169.604C31.6143 169.874 31.9746 170.287 32.1973 170.844H32.2764C32.5928 170.287 33.0264 169.874 33.5771 169.604C34.1279 169.329 34.7314 169.191 35.3877 169.191ZM45.1963 169.209C46.3447 169.209 47.1973 169.467 47.7539 169.982C48.3105 170.498 48.5889 171.321 48.5889 172.452V179H47.5254L47.2441 177.576H47.1738C46.9043 177.928 46.623 178.224 46.3301 178.464C46.0371 178.698 45.6973 178.877 45.3105 179C44.9297 179.117 44.4609 179.176 43.9043 179.176C43.3184 179.176 42.7969 179.073 42.3398 178.868C41.8887 178.663 41.5312 178.353 41.2676 177.937C41.0098 177.521 40.8809 176.993 40.8809 176.354C40.8809 175.394 41.2617 174.655 42.0234 174.14C42.7852 173.624 43.9453 173.343 45.5039 173.296L47.165 173.226V172.637C47.165 171.805 46.9863 171.222 46.6289 170.888C46.2715 170.554 45.7676 170.387 45.1172 170.387C44.6133 170.387 44.1328 170.46 43.6758 170.606C43.2188 170.753 42.7852 170.926 42.375 171.125L41.9268 170.018C42.3604 169.795 42.8584 169.604 43.4209 169.446C43.9834 169.288 44.5752 169.209 45.1963 169.209ZM47.1475 174.254L45.6797 174.315C44.4785 174.362 43.6318 174.559 43.1396 174.904C42.6475 175.25 42.4014 175.739 42.4014 176.372C42.4014 176.923 42.5684 177.33 42.9023 177.594C43.2363 177.857 43.6787 177.989 44.2295 177.989C45.085 177.989 45.7852 177.752 46.3301 177.277C46.875 176.803 47.1475 176.091 47.1475 175.142V174.254ZM57.7822 179H50.7598V178.033L56.042 170.51H51.0938V169.367H57.668V170.448L52.4561 177.866H57.7822V179ZM61.4912 169.367V179H60.0322V169.367H61.4912ZM60.7793 165.764C61.0195 165.764 61.2246 165.843 61.3945 166.001C61.5703 166.153 61.6582 166.394 61.6582 166.722C61.6582 167.044 61.5703 167.284 61.3945 167.442C61.2246 167.601 61.0195 167.68 60.7793 167.68C60.5273 167.68 60.3164 167.601 60.1465 167.442C59.9824 167.284 59.9004 167.044 59.9004 166.722C59.9004 166.394 59.9824 166.153 60.1465 166.001C60.3164 165.843 60.5273 165.764 60.7793 165.764Z" fill="black"/>
<path d="M268.134 173.524C268.134 172.563 268.207 171.688 268.354 170.896C268.506 170.1 268.729 169.396 269.021 168.787C269.314 168.172 269.684 167.653 270.129 167.231C270.574 166.81 271.096 166.49 271.693 166.273C272.291 166.057 272.962 165.948 273.706 165.948C274.028 165.948 274.336 165.966 274.629 166.001C274.922 166.036 275.18 166.086 275.402 166.15V166.959C275.186 166.883 274.934 166.824 274.646 166.783C274.359 166.736 274.052 166.713 273.724 166.713C272.716 166.713 271.869 166.947 271.184 167.416C270.498 167.879 269.974 168.573 269.61 169.499C269.253 170.419 269.054 171.562 269.013 172.927H269.074C269.244 172.61 269.481 172.309 269.786 172.021C270.097 171.734 270.48 171.5 270.938 171.318C271.4 171.137 271.945 171.046 272.572 171.046C273.346 171.046 274.011 171.201 274.567 171.512C275.13 171.822 275.561 172.268 275.859 172.848C276.164 173.428 276.316 174.116 276.316 174.913C276.316 175.769 276.158 176.516 275.842 177.154C275.531 177.793 275.08 178.291 274.488 178.648C273.902 179 273.196 179.176 272.37 179.176C271.667 179.176 271.052 179.032 270.524 178.745C269.997 178.458 269.555 178.057 269.197 177.541C268.846 177.025 268.579 176.428 268.397 175.748C268.222 175.062 268.134 174.321 268.134 173.524ZM272.361 178.402C273.328 178.402 274.078 178.101 274.611 177.497C275.15 176.888 275.42 176.026 275.42 174.913C275.42 173.952 275.174 173.193 274.682 172.637C274.189 172.074 273.445 171.793 272.449 171.793C271.758 171.793 271.16 171.931 270.656 172.206C270.158 172.481 269.774 172.824 269.505 173.234C269.235 173.639 269.101 174.037 269.101 174.43C269.101 174.799 269.153 175.209 269.259 175.66C269.364 176.111 269.543 176.548 269.795 176.97C270.047 177.386 270.381 177.729 270.797 177.998C271.219 178.268 271.74 178.402 272.361 178.402ZM278.725 178.376C278.725 178.118 278.783 177.922 278.9 177.787C279.018 177.646 279.19 177.576 279.419 177.576C279.671 177.576 279.855 177.646 279.973 177.787C280.09 177.922 280.148 178.118 280.148 178.376C280.148 178.634 280.09 178.833 279.973 178.974C279.855 179.114 279.671 179.185 279.419 179.185C279.19 179.185 279.018 179.114 278.9 178.974C278.783 178.833 278.725 178.634 278.725 178.376ZM286.512 171.257C287.379 171.257 288.126 171.403 288.753 171.696C289.386 171.989 289.872 172.417 290.212 172.979C290.558 173.536 290.73 174.219 290.73 175.027C290.73 175.883 290.54 176.621 290.159 177.242C289.778 177.863 289.239 178.341 288.542 178.675C287.851 179.009 287.033 179.176 286.09 179.176C285.41 179.176 284.792 179.111 284.235 178.982C283.685 178.848 283.219 178.669 282.838 178.446V177.55C283.248 177.796 283.737 177.998 284.306 178.156C284.88 178.314 285.478 178.394 286.099 178.394C286.849 178.394 287.502 178.268 288.059 178.016C288.615 177.758 289.046 177.383 289.351 176.891C289.661 176.398 289.816 175.795 289.816 175.08C289.816 174.125 289.526 173.381 288.946 172.848C288.366 172.309 287.49 172.039 286.318 172.039C285.838 172.039 285.378 172.074 284.938 172.145C284.505 172.209 284.101 172.291 283.726 172.391L283.216 172.03L283.734 166.15H289.904V166.977H284.499L284.104 171.556C284.367 171.491 284.698 171.427 285.097 171.362C285.501 171.292 285.973 171.257 286.512 171.257ZM301.084 172.54C301.084 173.612 301.002 174.562 300.838 175.388C300.674 176.214 300.425 176.908 300.091 177.471C299.757 178.033 299.332 178.458 298.816 178.745C298.301 179.032 297.691 179.176 296.988 179.176C296.098 179.176 295.348 178.927 294.738 178.429C294.129 177.931 293.666 177.189 293.35 176.205C293.039 175.221 292.884 173.999 292.884 172.54C292.884 171.239 293.016 170.094 293.279 169.104C293.549 168.113 293.985 167.34 294.589 166.783C295.192 166.227 295.995 165.948 296.997 165.948C297.993 165.948 298.79 166.221 299.388 166.766C299.991 167.311 300.425 168.078 300.688 169.068C300.952 170.053 301.084 171.21 301.084 172.54ZM293.78 172.54C293.78 173.858 293.895 174.951 294.123 175.818C294.352 176.68 294.703 177.324 295.178 177.752C295.652 178.18 296.256 178.394 296.988 178.394C297.744 178.394 298.356 178.18 298.825 177.752C299.294 177.324 299.637 176.677 299.854 175.81C300.076 174.942 300.188 173.853 300.188 172.54C300.188 171.333 300.091 170.296 299.897 169.429C299.71 168.562 299.385 167.896 298.922 167.434C298.459 166.971 297.817 166.739 296.997 166.739C296.194 166.739 295.559 166.977 295.09 167.451C294.621 167.926 294.284 168.597 294.079 169.464C293.88 170.331 293.78 171.356 293.78 172.54ZM311.367 172.54C311.367 173.612 311.285 174.562 311.121 175.388C310.957 176.214 310.708 176.908 310.374 177.471C310.04 178.033 309.615 178.458 309.1 178.745C308.584 179.032 307.975 179.176 307.271 179.176C306.381 179.176 305.631 178.927 305.021 178.429C304.412 177.931 303.949 177.189 303.633 176.205C303.322 175.221 303.167 173.999 303.167 172.54C303.167 171.239 303.299 170.094 303.562 169.104C303.832 168.113 304.269 167.34 304.872 166.783C305.476 166.227 306.278 165.948 307.28 165.948C308.276 165.948 309.073 166.221 309.671 166.766C310.274 167.311 310.708 168.078 310.972 169.068C311.235 170.053 311.367 171.21 311.367 172.54ZM304.063 172.54C304.063 173.858 304.178 174.951 304.406 175.818C304.635 176.68 304.986 177.324 305.461 177.752C305.936 178.18 306.539 178.394 307.271 178.394C308.027 178.394 308.64 178.18 309.108 177.752C309.577 177.324 309.92 176.677 310.137 175.81C310.359 174.942 310.471 173.853 310.471 172.54C310.471 171.333 310.374 170.296 310.181 169.429C309.993 168.562 309.668 167.896 309.205 167.434C308.742 166.971 308.101 166.739 307.28 166.739C306.478 166.739 305.842 166.977 305.373 167.451C304.904 167.926 304.567 168.597 304.362 169.464C304.163 170.331 304.063 171.356 304.063 172.54ZM319.813 179H318.908V166.15H325.939V166.968H319.813V172.443H325.605V173.252H319.813V179ZM328.611 165.324V169.209C328.611 169.543 328.605 169.909 328.594 170.308C328.582 170.706 328.57 171.037 328.559 171.301H328.611C328.84 170.709 329.238 170.22 329.807 169.833C330.375 169.446 331.084 169.253 331.934 169.253C333.176 169.253 334.134 169.672 334.808 170.51C335.487 171.348 335.827 172.575 335.827 174.192C335.827 175.183 335.675 176.053 335.37 176.803C335.065 177.547 334.611 178.13 334.008 178.552C333.41 178.968 332.66 179.176 331.758 179.176C330.943 179.176 330.278 179.006 329.763 178.666C329.247 178.32 328.872 177.89 328.638 177.374H328.567L328.4 179H327.724V165.324H328.611ZM331.837 170.026C331.081 170.026 330.466 170.19 329.991 170.519C329.517 170.841 329.168 171.312 328.945 171.934C328.723 172.555 328.611 173.313 328.611 174.21V174.351C328.611 175.669 328.852 176.674 329.332 177.365C329.812 178.057 330.592 178.402 331.67 178.402C332.736 178.402 333.542 178.039 334.087 177.312C334.638 176.58 334.913 175.54 334.913 174.192C334.913 172.815 334.658 171.778 334.148 171.081C333.639 170.378 332.868 170.026 331.837 170.026ZM345.882 169.446V179H345.161L345.029 177.277H344.977C344.812 177.629 344.581 177.948 344.282 178.235C343.983 178.522 343.617 178.751 343.184 178.921C342.75 179.091 342.246 179.176 341.672 179.176C340.939 179.176 340.324 179.05 339.826 178.798C339.334 178.54 338.962 178.153 338.71 177.638C338.458 177.122 338.332 176.478 338.332 175.704V169.446H339.22V175.616C339.22 176.571 339.434 177.274 339.861 177.726C340.295 178.177 340.928 178.402 341.76 178.402C342.463 178.402 343.052 178.268 343.526 177.998C344.007 177.729 344.37 177.321 344.616 176.776C344.868 176.226 344.994 175.54 344.994 174.72V169.446H345.882Z" fill="black"/>
<path d="M20.3984 214.812V216H12.9531V214.961L16.6797 210.812C17.138 210.302 17.4922 209.87 17.7422 209.516C17.9974 209.156 18.1745 208.836 18.2734 208.555C18.3776 208.268 18.4297 207.977 18.4297 207.68C18.4297 207.305 18.3516 206.966 18.1953 206.664C18.0443 206.357 17.8203 206.112 17.5234 205.93C17.2266 205.747 16.8672 205.656 16.4453 205.656C15.9401 205.656 15.5182 205.755 15.1797 205.953C14.8464 206.146 14.5964 206.417 14.4297 206.766C14.263 207.115 14.1797 207.516 14.1797 207.969H12.7344C12.7344 207.328 12.875 206.742 13.1562 206.211C13.4375 205.68 13.8542 205.258 14.4062 204.945C14.9583 204.628 15.638 204.469 16.4453 204.469C17.1641 204.469 17.7786 204.596 18.2891 204.852C18.7995 205.102 19.1901 205.456 19.4609 205.914C19.737 206.367 19.875 206.898 19.875 207.508C19.875 207.841 19.8177 208.18 19.7031 208.523C19.5938 208.862 19.4401 209.201 19.2422 209.539C19.0495 209.878 18.8229 210.211 18.5625 210.539C18.3073 210.867 18.0339 211.19 17.7422 211.508L14.6953 214.812H20.3984ZM26.6953 204.562V216H25.25V206.367L22.3359 207.43V206.125L26.4688 204.562H26.6953ZM38.0781 210.57V211.758H34.2656V210.57H38.0781ZM50.4453 209.406V211.141C50.4453 212.073 50.362 212.859 50.1953 213.5C50.0286 214.141 49.7891 214.656 49.4766 215.047C49.1641 215.438 48.7865 215.721 48.3438 215.898C47.9062 216.07 47.4115 216.156 46.8594 216.156C46.4219 216.156 46.0182 216.102 45.6484 215.992C45.2786 215.883 44.9453 215.708 44.6484 215.469C44.3568 215.224 44.1068 214.906 43.8984 214.516C43.6901 214.125 43.5312 213.651 43.4219 213.094C43.3125 212.536 43.2578 211.885 43.2578 211.141V209.406C43.2578 208.474 43.3411 207.693 43.5078 207.062C43.6797 206.432 43.9219 205.927 44.2344 205.547C44.5469 205.161 44.9219 204.885 45.3594 204.719C45.8021 204.552 46.2969 204.469 46.8438 204.469C47.2865 204.469 47.6927 204.523 48.0625 204.633C48.4375 204.737 48.7708 204.906 49.0625 205.141C49.3542 205.37 49.6016 205.677 49.8047 206.062C50.013 206.443 50.1719 206.909 50.2812 207.461C50.3906 208.013 50.4453 208.661 50.4453 209.406ZM48.9922 211.375V209.164C48.9922 208.654 48.9609 208.206 48.8984 207.82C48.8411 207.43 48.7552 207.096 48.6406 206.82C48.526 206.544 48.3802 206.32 48.2031 206.148C48.0312 205.977 47.8307 205.852 47.6016 205.773C47.3776 205.69 47.125 205.648 46.8438 205.648C46.5 205.648 46.1953 205.714 45.9297 205.844C45.6641 205.969 45.4401 206.169 45.2578 206.445C45.0807 206.721 44.9453 207.083 44.8516 207.531C44.7578 207.979 44.7109 208.523 44.7109 209.164V211.375C44.7109 211.885 44.7396 212.336 44.7969 212.727C44.8594 213.117 44.9505 213.456 45.0703 213.742C45.1901 214.023 45.3359 214.255 45.5078 214.438C45.6797 214.62 45.8776 214.755 46.1016 214.844C46.3307 214.927 46.5833 214.969 46.8594 214.969C47.2135 214.969 47.5234 214.901 47.7891 214.766C48.0547 214.63 48.276 214.419 48.4531 214.133C48.6354 213.841 48.7708 213.469 48.8594 213.016C48.9479 212.557 48.9922 212.01 48.9922 211.375ZM57.0547 204.562V216H55.6094V206.367L52.6953 207.43V206.125L56.8281 204.562H57.0547ZM68.4375 210.57V211.758H64.625V210.57H68.4375ZM81.1172 214.812V216H73.6719V214.961L77.3984 210.812C77.8568 210.302 78.2109 209.87 78.4609 209.516C78.7161 209.156 78.8932 208.836 78.9922 208.555C79.0964 208.268 79.1484 207.977 79.1484 207.68C79.1484 207.305 79.0703 206.966 78.9141 206.664C78.763 206.357 78.5391 206.112 78.2422 205.93C77.9453 205.747 77.5859 205.656 77.1641 205.656C76.6589 205.656 76.237 205.755 75.8984 205.953C75.5651 206.146 75.3151 206.417 75.1484 206.766C74.9818 207.115 74.8984 207.516 74.8984 207.969H73.4531C73.4531 207.328 73.5938 206.742 73.875 206.211C74.1562 205.68 74.5729 205.258 75.125 204.945C75.6771 204.628 76.3568 204.469 77.1641 204.469C77.8828 204.469 78.4974 204.596 79.0078 204.852C79.5182 205.102 79.9089 205.456 80.1797 205.914C80.4557 206.367 80.5938 206.898 80.5938 207.508C80.5938 207.841 80.5365 208.18 80.4219 208.523C80.3125 208.862 80.1589 209.201 79.9609 209.539C79.7682 209.878 79.5417 210.211 79.2812 210.539C79.026 210.867 78.7526 211.19 78.4609 211.508L75.4141 214.812H81.1172ZM89.8047 209.406V211.141C89.8047 212.073 89.7214 212.859 89.5547 213.5C89.388 214.141 89.1484 214.656 88.8359 215.047C88.5234 215.438 88.1458 215.721 87.7031 215.898C87.2656 216.07 86.7708 216.156 86.2188 216.156C85.7812 216.156 85.3776 216.102 85.0078 215.992C84.638 215.883 84.3047 215.708 84.0078 215.469C83.7161 215.224 83.4661 214.906 83.2578 214.516C83.0495 214.125 82.8906 213.651 82.7812 213.094C82.6719 212.536 82.6172 211.885 82.6172 211.141V209.406C82.6172 208.474 82.7005 207.693 82.8672 207.062C83.0391 206.432 83.2812 205.927 83.5938 205.547C83.9062 205.161 84.2812 204.885 84.7188 204.719C85.1615 204.552 85.6562 204.469 86.2031 204.469C86.6458 204.469 87.0521 204.523 87.4219 204.633C87.7969 204.737 88.1302 204.906 88.4219 205.141C88.7135 205.37 88.9609 205.677 89.1641 206.062C89.3724 206.443 89.5312 206.909 89.6406 207.461C89.75 208.013 89.8047 208.661 89.8047 209.406ZM88.3516 211.375V209.164C88.3516 208.654 88.3203 208.206 88.2578 207.82C88.2005 207.43 88.1146 207.096 88 206.82C87.8854 206.544 87.7396 206.32 87.5625 206.148C87.3906 205.977 87.1901 205.852 86.9609 205.773C86.737 205.69 86.4844 205.648 86.2031 205.648C85.8594 205.648 85.5547 205.714 85.2891 205.844C85.0234 205.969 84.7995 206.169 84.6172 206.445C84.4401 206.721 84.3047 207.083 84.2109 207.531C84.1172 207.979 84.0703 208.523 84.0703 209.164V211.375C84.0703 211.885 84.099 212.336 84.1562 212.727C84.2188 213.117 84.3099 213.456 84.4297 213.742C84.5495 214.023 84.6953 214.255 84.8672 214.438C85.0391 214.62 85.237 214.755 85.4609 214.844C85.6901 214.927 85.9427 214.969 86.2188 214.969C86.5729 214.969 86.8828 214.901 87.1484 214.766C87.4141 214.63 87.6354 214.419 87.8125 214.133C87.9948 213.841 88.1302 213.469 88.2188 213.016C88.3073 212.557 88.3516 212.01 88.3516 211.375ZM99.1172 214.812V216H91.6719V214.961L95.3984 210.812C95.8568 210.302 96.2109 209.87 96.4609 209.516C96.7161 209.156 96.8932 208.836 96.9922 208.555C97.0964 208.268 97.1484 207.977 97.1484 207.68C97.1484 207.305 97.0703 206.966 96.9141 206.664C96.763 206.357 96.5391 206.112 96.2422 205.93C95.9453 205.747 95.5859 205.656 95.1641 205.656C94.6589 205.656 94.237 205.755 93.8984 205.953C93.5651 206.146 93.3151 206.417 93.1484 206.766C92.9818 207.115 92.8984 207.516 92.8984 207.969H91.4531C91.4531 207.328 91.5938 206.742 91.875 206.211C92.1562 205.68 92.5729 205.258 93.125 204.945C93.6771 204.628 94.3568 204.469 95.1641 204.469C95.8828 204.469 96.4974 204.596 97.0078 204.852C97.5182 205.102 97.9089 205.456 98.1797 205.914C98.4557 206.367 98.5938 206.898 98.5938 207.508C98.5938 207.841 98.5365 208.18 98.4219 208.523C98.3125 208.862 98.1589 209.201 97.9609 209.539C97.7682 209.878 97.5417 210.211 97.2812 210.539C97.026 210.867 96.7526 211.19 96.4609 211.508L93.4141 214.812H99.1172ZM108.117 214.812V216H100.672V214.961L104.398 210.812C104.857 210.302 105.211 209.87 105.461 209.516C105.716 209.156 105.893 208.836 105.992 208.555C106.096 208.268 106.148 207.977 106.148 207.68C106.148 207.305 106.07 206.966 105.914 206.664C105.763 206.357 105.539 206.112 105.242 205.93C104.945 205.747 104.586 205.656 104.164 205.656C103.659 205.656 103.237 205.755 102.898 205.953C102.565 206.146 102.315 206.417 102.148 206.766C101.982 207.115 101.898 207.516 101.898 207.969H100.453C100.453 207.328 100.594 206.742 100.875 206.211C101.156 205.68 101.573 205.258 102.125 204.945C102.677 204.628 103.357 204.469 104.164 204.469C104.883 204.469 105.497 204.596 106.008 204.852C106.518 205.102 106.909 205.456 107.18 205.914C107.456 206.367 107.594 206.898 107.594 207.508C107.594 207.841 107.536 208.18 107.422 208.523C107.312 208.862 107.159 209.201 106.961 209.539C106.768 209.878 106.542 210.211 106.281 210.539C106.026 210.867 105.753 211.19 105.461 211.508L102.414 214.812H108.117Z" fill="#BEBEBE"/>
<path d="M296.511 210.544V214.188C296.388 214.37 296.192 214.575 295.923 214.803C295.654 215.026 295.283 215.222 294.809 215.391C294.339 215.555 293.733 215.637 292.99 215.637C292.384 215.637 291.826 215.532 291.315 215.322C290.81 215.108 290.37 214.798 289.996 214.393C289.627 213.982 289.34 213.486 289.135 212.902C288.934 212.314 288.834 211.649 288.834 210.906V210.134C288.834 209.391 288.921 208.728 289.094 208.145C289.271 207.561 289.531 207.067 289.873 206.661C290.215 206.251 290.634 205.941 291.131 205.731C291.628 205.517 292.197 205.41 292.84 205.41C293.601 205.41 294.237 205.542 294.747 205.807C295.262 206.066 295.663 206.426 295.95 206.887C296.242 207.347 296.429 207.871 296.511 208.459H295.191C295.132 208.099 295.014 207.771 294.836 207.475C294.663 207.178 294.414 206.941 294.091 206.764C293.767 206.581 293.35 206.49 292.84 206.49C292.38 206.49 291.981 206.575 291.644 206.743C291.306 206.912 291.028 207.153 290.81 207.468C290.591 207.782 290.427 208.163 290.317 208.609C290.213 209.056 290.16 209.56 290.16 210.12V210.906C290.16 211.48 290.226 211.993 290.358 212.444C290.495 212.896 290.689 213.281 290.939 213.6C291.19 213.914 291.489 214.153 291.835 214.317C292.186 214.481 292.573 214.563 292.997 214.563C293.466 214.563 293.847 214.525 294.139 214.447C294.43 214.365 294.658 214.27 294.822 214.16C294.986 214.046 295.112 213.939 295.198 213.839V211.61H292.895V210.544H296.511ZM299.771 209.266V215.5H298.507V208.104H299.737L299.771 209.266ZM302.082 208.062L302.075 209.238C301.97 209.215 301.87 209.202 301.774 209.197C301.683 209.188 301.578 209.184 301.46 209.184C301.168 209.184 300.911 209.229 300.688 209.32C300.464 209.411 300.275 209.539 300.12 209.703C299.965 209.867 299.842 210.063 299.751 210.291C299.664 210.514 299.607 210.76 299.58 211.029L299.225 211.234C299.225 210.788 299.268 210.368 299.354 209.977C299.446 209.585 299.585 209.238 299.771 208.938C299.958 208.632 300.195 208.395 300.482 208.227C300.774 208.053 301.12 207.967 301.521 207.967C301.613 207.967 301.717 207.978 301.836 208.001C301.954 208.019 302.036 208.04 302.082 208.062ZM302.779 211.884V211.727C302.779 211.193 302.857 210.699 303.012 210.243C303.167 209.783 303.39 209.384 303.682 209.047C303.973 208.705 304.326 208.441 304.741 208.254C305.156 208.062 305.621 207.967 306.136 207.967C306.655 207.967 307.122 208.062 307.537 208.254C307.956 208.441 308.312 208.705 308.604 209.047C308.9 209.384 309.125 209.783 309.28 210.243C309.435 210.699 309.513 211.193 309.513 211.727V211.884C309.513 212.417 309.435 212.911 309.28 213.367C309.125 213.823 308.9 214.222 308.604 214.563C308.312 214.901 307.959 215.165 307.544 215.356C307.134 215.543 306.669 215.637 306.149 215.637C305.63 215.637 305.163 215.543 304.748 215.356C304.333 215.165 303.978 214.901 303.682 214.563C303.39 214.222 303.167 213.823 303.012 213.367C302.857 212.911 302.779 212.417 302.779 211.884ZM304.044 211.727V211.884C304.044 212.253 304.087 212.602 304.174 212.93C304.26 213.253 304.39 213.54 304.563 213.791C304.741 214.042 304.962 214.24 305.227 214.386C305.491 214.527 305.799 214.598 306.149 214.598C306.496 214.598 306.799 214.527 307.059 214.386C307.323 214.24 307.542 214.042 307.715 213.791C307.888 213.54 308.018 213.253 308.104 212.93C308.196 212.602 308.241 212.253 308.241 211.884V211.727C308.241 211.362 308.196 211.018 308.104 210.694C308.018 210.366 307.886 210.077 307.708 209.826C307.535 209.571 307.316 209.37 307.052 209.225C306.792 209.079 306.487 209.006 306.136 209.006C305.789 209.006 305.484 209.079 305.22 209.225C304.96 209.37 304.741 209.571 304.563 209.826C304.39 210.077 304.26 210.366 304.174 210.694C304.087 211.018 304.044 211.362 304.044 211.727ZM314.059 214.598C314.359 214.598 314.637 214.536 314.893 214.413C315.148 214.29 315.357 214.121 315.521 213.907C315.686 213.688 315.779 213.44 315.802 213.162H317.005C316.982 213.6 316.834 214.007 316.561 214.386C316.292 214.759 315.938 215.062 315.501 215.295C315.063 215.523 314.583 215.637 314.059 215.637C313.503 215.637 313.017 215.539 312.603 215.343C312.192 215.147 311.851 214.878 311.577 214.536C311.308 214.194 311.105 213.802 310.969 213.36C310.837 212.914 310.771 212.442 310.771 211.945V211.658C310.771 211.161 310.837 210.692 310.969 210.25C311.105 209.803 311.308 209.409 311.577 209.067C311.851 208.726 312.192 208.457 312.603 208.261C313.017 208.065 313.503 207.967 314.059 207.967C314.637 207.967 315.143 208.085 315.576 208.322C316.009 208.555 316.349 208.874 316.595 209.279C316.845 209.68 316.982 210.136 317.005 210.646H315.802C315.779 210.341 315.692 210.065 315.542 209.819C315.396 209.573 315.196 209.377 314.94 209.231C314.69 209.081 314.396 209.006 314.059 209.006C313.671 209.006 313.345 209.083 313.081 209.238C312.821 209.389 312.614 209.594 312.459 209.854C312.309 210.109 312.199 210.394 312.131 210.708C312.067 211.018 312.035 211.335 312.035 211.658V211.945C312.035 212.269 312.067 212.588 312.131 212.902C312.195 213.217 312.302 213.502 312.452 213.757C312.607 214.012 312.814 214.217 313.074 214.372C313.339 214.522 313.667 214.598 314.059 214.598ZM321.496 215.637C320.981 215.637 320.514 215.55 320.095 215.377C319.68 215.199 319.322 214.951 319.021 214.632C318.725 214.313 318.497 213.935 318.338 213.497C318.178 213.06 318.099 212.581 318.099 212.062V211.774C318.099 211.173 318.188 210.637 318.365 210.168C318.543 209.694 318.785 209.293 319.09 208.965C319.395 208.637 319.742 208.388 320.129 208.22C320.516 208.051 320.917 207.967 321.332 207.967C321.861 207.967 322.316 208.058 322.699 208.24C323.087 208.423 323.403 208.678 323.649 209.006C323.896 209.329 324.078 209.712 324.196 210.154C324.315 210.592 324.374 211.07 324.374 211.59V212.157H318.851V211.125H323.109V211.029C323.091 210.701 323.023 210.382 322.904 210.072C322.79 209.762 322.608 209.507 322.357 209.307C322.107 209.106 321.765 209.006 321.332 209.006C321.045 209.006 320.781 209.067 320.539 209.19C320.298 209.309 320.09 209.487 319.917 209.724C319.744 209.961 319.609 210.25 319.514 210.592C319.418 210.934 319.37 211.328 319.37 211.774V212.062C319.37 212.412 319.418 212.743 319.514 213.053C319.614 213.358 319.757 213.627 319.944 213.859C320.136 214.092 320.366 214.274 320.635 214.406C320.908 214.538 321.218 214.604 321.564 214.604C322.011 214.604 322.389 214.513 322.699 214.331C323.009 214.149 323.28 213.905 323.513 213.6L324.278 214.208C324.119 214.45 323.916 214.68 323.67 214.898C323.424 215.117 323.121 215.295 322.761 215.432C322.405 215.568 321.984 215.637 321.496 215.637ZM327.115 209.266V215.5H325.851V208.104H327.081L327.115 209.266ZM329.426 208.062L329.419 209.238C329.314 209.215 329.214 209.202 329.118 209.197C329.027 209.188 328.922 209.184 328.804 209.184C328.512 209.184 328.255 209.229 328.031 209.32C327.808 209.411 327.619 209.539 327.464 209.703C327.309 209.867 327.186 210.063 327.095 210.291C327.008 210.514 326.951 210.76 326.924 211.029L326.568 211.234C326.568 210.788 326.612 210.368 326.698 209.977C326.789 209.585 326.928 209.238 327.115 208.938C327.302 208.632 327.539 208.395 327.826 208.227C328.118 208.053 328.464 207.967 328.865 207.967C328.956 207.967 329.061 207.978 329.18 208.001C329.298 208.019 329.38 208.04 329.426 208.062ZM331.969 208.104V215.5H330.697V208.104H331.969ZM330.602 206.142C330.602 205.937 330.663 205.763 330.786 205.622C330.914 205.481 331.101 205.41 331.347 205.41C331.588 205.41 331.773 205.481 331.9 205.622C332.033 205.763 332.099 205.937 332.099 206.142C332.099 206.338 332.033 206.506 331.9 206.647C331.773 206.784 331.588 206.853 331.347 206.853C331.101 206.853 330.914 206.784 330.786 206.647C330.663 206.506 330.602 206.338 330.602 206.142ZM337.068 215.637C336.553 215.637 336.086 215.55 335.667 215.377C335.252 215.199 334.895 214.951 334.594 214.632C334.298 214.313 334.07 213.935 333.91 213.497C333.751 213.06 333.671 212.581 333.671 212.062V211.774C333.671 211.173 333.76 210.637 333.938 210.168C334.115 209.694 334.357 209.293 334.662 208.965C334.967 208.637 335.314 208.388 335.701 208.22C336.089 208.051 336.49 207.967 336.904 207.967C337.433 207.967 337.889 208.058 338.271 208.24C338.659 208.423 338.976 208.678 339.222 209.006C339.468 209.329 339.65 209.712 339.769 210.154C339.887 210.592 339.946 211.07 339.946 211.59V212.157H334.423V211.125H338.682V211.029C338.663 210.701 338.595 210.382 338.477 210.072C338.363 209.762 338.18 209.507 337.93 209.307C337.679 209.106 337.337 209.006 336.904 209.006C336.617 209.006 336.353 209.067 336.111 209.19C335.87 209.309 335.662 209.487 335.489 209.724C335.316 209.961 335.182 210.25 335.086 210.592C334.99 210.934 334.942 211.328 334.942 211.774V212.062C334.942 212.412 334.99 212.743 335.086 213.053C335.186 213.358 335.33 213.627 335.517 213.859C335.708 214.092 335.938 214.274 336.207 214.406C336.48 214.538 336.79 214.604 337.137 214.604C337.583 214.604 337.962 214.513 338.271 214.331C338.581 214.149 338.853 213.905 339.085 213.6L339.851 214.208C339.691 214.45 339.488 214.68 339.242 214.898C338.996 215.117 338.693 215.295 338.333 215.432C337.978 215.568 337.556 215.637 337.068 215.637ZM345.729 213.538C345.729 213.356 345.688 213.187 345.606 213.032C345.529 212.873 345.367 212.729 345.121 212.602C344.88 212.469 344.515 212.355 344.027 212.26C343.617 212.173 343.246 212.071 342.913 211.952C342.585 211.834 342.305 211.69 342.072 211.521C341.844 211.353 341.669 211.155 341.546 210.927C341.423 210.699 341.361 210.432 341.361 210.127C341.361 209.835 341.425 209.56 341.553 209.3C341.685 209.04 341.869 208.81 342.106 208.609C342.348 208.409 342.637 208.252 342.975 208.138C343.312 208.024 343.688 207.967 344.103 207.967C344.695 207.967 345.201 208.072 345.62 208.281C346.039 208.491 346.361 208.771 346.584 209.122C346.807 209.468 346.919 209.854 346.919 210.277H345.654C345.654 210.072 345.593 209.874 345.47 209.683C345.351 209.487 345.176 209.325 344.943 209.197C344.715 209.07 344.435 209.006 344.103 209.006C343.752 209.006 343.467 209.061 343.248 209.17C343.034 209.275 342.877 209.409 342.776 209.573C342.681 209.737 342.633 209.91 342.633 210.093C342.633 210.229 342.656 210.353 342.701 210.462C342.751 210.567 342.838 210.665 342.961 210.756C343.084 210.842 343.257 210.924 343.48 211.002C343.704 211.079 343.989 211.157 344.335 211.234C344.941 211.371 345.44 211.535 345.832 211.727C346.224 211.918 346.516 212.153 346.707 212.431C346.898 212.709 346.994 213.046 346.994 213.442C346.994 213.766 346.926 214.062 346.789 214.331C346.657 214.6 346.463 214.832 346.208 215.028C345.957 215.22 345.657 215.37 345.306 215.479C344.959 215.584 344.57 215.637 344.137 215.637C343.485 215.637 342.934 215.521 342.482 215.288C342.031 215.056 341.689 214.755 341.457 214.386C341.225 214.017 341.108 213.627 341.108 213.217H342.38C342.398 213.563 342.498 213.839 342.681 214.044C342.863 214.244 343.086 214.388 343.351 214.475C343.615 214.557 343.877 214.598 344.137 214.598C344.483 214.598 344.772 214.552 345.005 214.461C345.242 214.37 345.422 214.244 345.545 214.085C345.668 213.925 345.729 213.743 345.729 213.538Z" fill="#FFA631"/>
</svg>
